<?xml version="1.0" encoding="UTF-8"?>
<svg width="182px" height="180px" viewBox="0 0 182 180" version="1.1" xmlns="http://www.w3.org/2000/svg" xmlns:xlink="http://www.w3.org/1999/xlink">
    <!-- Generator: Sketch 53.2 (72643) - https://sketchapp.com -->
    <title>illu/1step/rupor</title>
    <desc>Created with Sketch.</desc>
    <defs>
        <polygon id="path-1" points="0.171602995 6.42761905 7.31400326 0.934117428 14.2347949 0.160780432 18.8604795 15.7529617 38.9489267 36.5999786 25.7873629 52.1614859 21.9062592 52.8310398 21.7890174 46.0203236 6.6202593 22.7261657"></polygon>
        <polygon id="path-3" points="0.108010457 6.64569819 7.25157724 1.09849057 14.1725417 0.318802309 18.7980535 16.0617532 38.8853341 37.1121353 25.7237848 52.8253143 6.55783327 23.102937"></polygon>
        <path d="M0.170848917,49.1152268 L16.7025292,41.4982124 L107.193781,0.126217475 L137.850807,62.9682521 C83.8792161,57.3762625 46.7710637,66.211881 26.3296024,73.6573998 C17.6800951,72.4813799 6.59773658,62.7833728 0.170848917,49.1152268 Z" id="path-5"></path>
        <path d="M22.5160266,0.208512 L22.6975052,0.420690551 C29.1199652,14.6065851 39.5013553,24.6842239 47.8858665,25.9165868 C39.5328933,29.2042691 34.0666467,32.2466536 31.4877992,33.811423 C30.9138577,34.2568325 30.3339946,34.6320117 29.7539414,34.9174411 C21.4130454,39.0102605 7.86171556,27.9624804 0.239262524,11.126866 L15.3941603,3.76652121 L22.5160266,0.208512 Z" id="path-7"></path>
        <path d="M30.69623,36.6543766 L23.0233978,40.1105507 L6.16547168,47.7018738 C-2.1830076,30.7764908 -1.5188605,12.999158 7.61936858,8.88407638 C8.25495797,8.59825172 8.96351928,8.37178946 9.72615287,8.191871 C12.7929441,7.11174982 19.0726627,4.64462363 27.5659487,0.00519945974 C22.7188088,7.5631483 23.660813,22.3919395 30.69623,36.6543766 Z" id="path-9"></path>
        <path d="M2.88486705,77.5168767 C21.4759427,66.8975163 51.5605037,44.4758235 80.8332244,0.101268112 L110.724584,63.4591818 L22.1305734,105.177778 L5.773629,112.879553 C-0.718964697,99.1177778 -1.58710537,84.8093676 2.88486705,77.5168767 Z" id="path-11"></path>
        <path d="M81.6907313,49.5629678 C98.347532,84.6702851 96.0902845,120.509824 76.647532,129.61216 C57.2064199,138.716698 27.9408454,117.636485 11.2828665,82.5292419 C-5.37509746,47.4220724 -3.11786495,11.5824601 16.3259764,2.47996116 C35.7684605,-6.62357188 65.0327375,14.4556505 81.6907313,49.5629678 Z" id="path-13"></path>
        <path d="M70.3708493,123.215012 C53.5789726,131.220902 26.4304301,110.16517 11.0867712,77.2386699 C-4.25706849,44.3110151 -3.03370274,9.73057918 13.7569986,1.72488751 C30.5490411,-6.2797403 57.6974932,14.7747911 73.041137,47.7012301 C88.3847808,80.6276691 87.162726,115.209123 70.3708493,123.215012 Z" id="path-15"></path>
        <path d="M70.3708493,123.215012 C53.5789726,131.220902 26.4304301,110.16517 11.0867712,77.2386699 C-4.25706849,44.3110151 -3.03370274,9.73057918 13.7569986,1.72488751 C30.5490411,-6.2797403 57.6974932,14.7747911 73.041137,47.7012301 C88.3847808,80.6276691 87.162726,115.209123 70.3708493,123.215012 Z" id="path-17"></path>
        <path d="M8.20644537,1.31733889 C20.3484401,-4.17967095 39.9820209,10.2771193 51.0771085,32.8866702 C62.1734298,55.4947442 61.2892344,79.2396467 49.1458516,84.7356079 C45.2824126,86.4849236 40.6593952,86.2066613 35.7954719,84.2957939 C26.5005773,76.1464451 17.6464541,64.6356019 10.9743643,51.0398887 C4.3022744,37.4441756 0.691879031,23.5601566 0.0625009024,11.4873536 C1.6236079,6.66812809 4.34300631,3.06666945 8.20644537,1.31733889 Z" id="path-19"></path>
        <path d="M23.3077552,0.449990783 C25.5776965,-0.591852535 29.2480849,2.15041475 31.3225797,6.43870968 C33.3972262,10.7281843 33.2315215,15.2328111 30.9615802,16.2746544 C30.8043733,16.3470599 30.627743,16.4051613 30.4380628,16.4504332 C29.6753965,16.724129 28.1163767,17.3490876 26.0062221,18.5254194 C22.4777449,20.491576 17.4100505,24.0093641 11.9671231,29.9908571 C9.64123378,26.3087926 7.46218727,22.40553 5.48127314,18.309235 C3.50034384,14.2129401 1.79883628,10.0905438 0.363912907,5.99970507 C8.56193808,5.71480184 14.5719183,4.144 18.3733681,2.74278341 C20.646754,1.90517972 22.1343174,1.13010138 22.8355273,0.731354839 C22.9931895,0.618986175 23.1505483,0.522396313 23.3077552,0.449990783 Z" id="path-21"></path>
        <path d="M1.46044286,10.1962922 C-0.300304286,5.64605294 -0.430341429,1.21138922 1.17025714,0.292563879 C2.77161429,-0.627510926 5.49681429,2.3168534 7.2576,6.86709263 C9.01748571,11.4187375 9.1476,15.8535574 7.54701429,16.7722266 C5.94642857,17.6910519 3.22148571,14.7477809 1.46044286,10.1962922 Z" id="path-23"></path>
    </defs>
    <g id="2nd" stroke="none" stroke-width="1" fill="none" fill-rule="evenodd">
        <g id="патрулькачества_landing_fin" transform="translate(-343.000000, -2294.000000)">
            <g id="1step" transform="translate(-56.000000, 1708.000000)">
                <g id="illu/1step" transform="translate(121.000000, 0.000000)">
                    <g id="illu/1step/rupor" transform="translate(369.000000, 676.820258) scale(-1, 1) rotate(13.000000) translate(-369.000000, -676.820258) translate(278.000000, 578.820258)">
                        <g id="Group-174" transform="translate(41.225603, 142.633402)">
                            <mask id="mask-2" fill="white">
                                <use xlink:href="#path-1"></use>
                            </mask>
                            <g id="Clip-173"></g>
                            <polygon id="Fill-172" fill="#FFA717" mask="url(#mask-2)" points="-8.56537725 -4.20438071 39.6436787 -11.1124487 48.9455537 56.370385 0.736483281 63.278453"></polygon>
                        </g>
                        <g id="Group-177" transform="translate(37.852591, 141.359515)">
                            <mask id="mask-4" fill="white">
                                <use xlink:href="#path-3"></use>
                            </mask>
                            <g id="Clip-176"></g>
                            <polygon id="Fill-175" fill="#FFBA2F" mask="url(#mask-4)" points="-8.62896978 -4.0899273 39.5801006 -11.0653254 48.8666381 56.9629388 0.65756766 63.9383369"></polygon>
                        </g>
                        <g id="Group-180" transform="translate(30.395248, 66.245933)">
                            <mask id="mask-6" fill="white">
                                <use xlink:href="#path-5"></use>
                            </mask>
                            <g id="Clip-179"></g>
                            <polygon id="Fill-178" fill="#EFEFEF" mask="url(#mask-6)" points="-13.3048273 9.07542291 134.65676 -10.8935373 146.368667 69.1320581 -1.59293575 89.1010183"></polygon>
                        </g>
                        <g id="Group-183" transform="translate(5.691759, 116.732813)">
                            <mask id="mask-8" fill="white">
                                <use xlink:href="#path-7"></use>
                            </mask>
                            <g id="Clip-182"></g>
                            <polygon id="Fill-181" fill="#FDAD29" mask="url(#mask-8)" points="-9.03568116 -2.85198032 50.2035058 -11.4947615 57.039454 38.9989981 -2.19973296 47.6417792"></polygon>
                        </g>
                        <g id="Group-186" transform="translate(0.434969, 80.040783)">
                            <mask id="mask-10" fill="white">
                                <use xlink:href="#path-9"></use>
                            </mask>
                            <g id="Clip-185"></g>
                            <polygon id="Fill-184" fill="#FFC248" mask="url(#mask-10)" points="-12.213317 -2.37326462 34.3817931 -8.61257442 43.0957087 50.4619054 -3.49941743 56.7011541"></polygon>
                        </g>
                        <g id="Group-189" transform="translate(24.178508, 3.574760)">
                            <mask id="mask-12" fill="white">
                                <use xlink:href="#path-11"></use>
                            </mask>
                            <g id="Clip-188"></g>
                            <polygon id="Fill-187" fill="#FFFFFF" mask="url(#mask-12)" points="-19.4846617 6.7117169 107.67041 -11.0907309 123.876027 103.779223 -3.2789997 121.581612"></polygon>
                        </g>
                        <g id="Group-192" transform="translate(88.007346, 0.403151)">
                            <mask id="mask-14" fill="white">
                                <use xlink:href="#path-13"></use>
                            </mask>
                            <g id="Clip-191"></g>
                            <polygon id="Fill-190" fill="#FDAD29" mask="url(#mask-14)" points="-13.7619014 -1.78439768 85.5255911 -15.6062622 106.734768 133.876903 7.44730577 147.698782"></polygon>
                        </g>
                        <g id="Group-195" transform="translate(94.081377, 4.052910)">
                            <mask id="mask-16" fill="white">
                                <use xlink:href="#path-15"></use>
                            </mask>
                            <g id="Clip-194"></g>
                            <polygon id="Fill-193" fill="#EFEFEF" mask="url(#mask-16)" points="-13.0342699 -2.94499798 77.1507671 -15.7286328 97.1624795 127.885172 6.97736712 140.668791"></polygon>
                        </g>
                        <g id="Group-198" transform="translate(94.081377, 4.052910)">
                            <mask id="mask-18" fill="white">
                                <use xlink:href="#path-17"></use>
                            </mask>
                            <g id="Clip-197"></g>
                            <polygon id="Fill-196" fill="#FFFFFF" mask="url(#mask-18)" points="-13.0342699 -2.94499798 77.1507671 -15.7286328 97.1624795 127.885172 6.97736712 140.668791"></polygon>
                        </g>
                        <g id="Group-201" transform="translate(94.664612, 31.948784)">
                            <mask id="mask-20" fill="white">
                                <use xlink:href="#path-19"></use>
                            </mask>
                            <g id="Clip-200"></g>
                            <polygon id="Fill-199" fill="#EFEFEF" mask="url(#mask-20)" points="-10.381493 -4.18365878 55.9751164 -13.1146382 71.0763049 89.7853746 4.71968005 98.7162506"></polygon>
                        </g>
                        <g id="Group-204" transform="translate(99.869651, 61.748393)">
                            <mask id="mask-22" fill="white">
                                <use xlink:href="#path-21"></use>
                            </mask>
                            <g id="Clip-203"></g>
                            <polygon id="Fill-202" fill="#FFFFFF" mask="url(#mask-22)" points="-8.56266645 -2.74617512 37.4688262 -9.03306912 43.5649971 33.1209438 -2.46641965 39.4078378"></polygon>
                        </g>
                        <g id="Group-207" transform="translate(125.623308, 65.586263)">
                            <mask id="mask-24" fill="white">
                                <use xlink:href="#path-23"></use>
                            </mask>
                            <g id="Clip-206"></g>
                            <polygon id="Fill-205" fill="#FDAD29" mask="url(#mask-24)" points="-7.64809714 -6.16654555 12.5651571 -9.61741175 16.3654714 23.2310236 -3.84770571 26.6818898"></polygon>
                        </g>
                    </g>
                </g>
            </g>
        </g>
    </g>
</svg>