<?xml version="1.0" encoding="UTF-8"?>
<svg width="226px" height="224px" viewBox="0 0 226 224" version="1.1" xmlns="http://www.w3.org/2000/svg" xmlns:xlink="http://www.w3.org/1999/xlink">
    <!-- Generator: Sketch 53.2 (72643) - https://sketchapp.com -->
    <title>illu/2step/loading2</title>
    <desc>Created with Sketch.</desc>
    <defs>
        <filter x="-17.4%" y="-17.6%" width="134.9%" height="135.1%" filterUnits="objectBoundingBox" id="filter-1">
            <feGaussianBlur stdDeviation="10" in="SourceGraphic"></feGaussianBlur>
        </filter>
        <path d="M98.3415238,12.9540611 L99.4510408,12.9535041 C146.503761,12.9298814 184.666677,51.0544974 184.690299,98.1072173 C184.690314,98.1356885 184.690314,98.1641598 184.6903,98.192631 L184.6903,98.192631 C184.666719,145.306371 146.479414,183.493736 99.3656734,183.517389 L98.2561563,183.517946 C51.2034364,183.541569 13.0405204,145.416953 13.0168977,98.3642329 C13.0168834,98.3357617 13.0168834,98.3072905 13.0168976,98.2788192 L13.0168976,98.2788192 C13.0404781,51.1650789 51.2277834,12.9777145 98.3415238,12.9540611 Z" id="path-2"></path>
        <path d="M45.9731858,7.29177442 L45.9731858,9.07758686 C45.9731858,20.290458 42.3908234,30.5709622 36.492416,36.6713165 C42.3908234,42.7729656 45.9731858,53.0542568 45.9731858,64.2658364 L45.9731858,66.5159061 L48.6369295,66.5159061 L48.6369295,73.3974895 L0.408713693,73.3974895 L0.408713693,66.5159061 L3.07277213,66.5159061 L3.07277213,64.2658364 C3.07277213,53.0542568 6.65452327,42.7728038 12.5537039,36.6713165 C6.65452327,30.5709622 3.07277213,20.288681 3.07277213,9.07758686 L3.07277213,7.29177442 L0.408713693,7.29177442 L0.408713693,0.410041841 L48.6369295,0.410041841 L48.6369295,7.29177442 L45.9731858,7.29177442 Z M31.9992587,34.8761744 C37.5192226,30.3914765 41.2243812,21.313393 41.7122656,11.3302334 L7.33322474,11.3302334 C7.82216961,21.313393 11.5264206,30.3914765 17.0472952,34.8761744 L19.2581352,36.6713165 L17.0472952,38.4664587 C11.5255221,42.9516262 7.82216961,52.031014 7.33322474,62.0131962 L41.7136409,62.0131962 C41.2243812,52.0300493 37.5193754,42.9506615 31.9992587,38.4664587 L29.7872176,36.6713165 L31.9992587,34.8761744 Z M11.7654148,14.9098869 L37.2800786,14.9098869 C36.9112314,22.4898872 34.0972166,29.3843132 29.9026608,32.7893363 C29.9026608,32.7893363 29.1844799,33.1215562 28.2253519,34.151409 C26.2410432,37.1868618 26.1352086,48.2823501 26.1319049,48.7715374 C27.5565615,48.934439 29.0957567,49.5784866 30.6211442,51.070972 C36.0030036,56.3383365 37.5645759,56.9595517 37.7523766,60.7833133 L12.5175251,60.7833133 C12.705176,56.9605164 15.7670571,54.224639 19.6483021,51.070972 C19.6483021,51.070972 21.4947997,49.3350195 24.0846975,48.853388 C24.0375594,48.7662315 24.0099378,48.7073719 24.0099378,48.7073719 C24.0099378,38.2562548 20.8201537,33.7749525 20.8201537,33.7749525 L18.5528666,32.4128798 C14.3596677,29.0056036 12.1354662,22.4900459 11.7654148,14.9098869 Z" id="path-4"></path>
    </defs>
    <g id="2nd" stroke="none" stroke-width="1" fill="none" fill-rule="evenodd">
        <g id="патрулькачества_landing_fin" transform="translate(-1054.000000, -3148.000000)">
            <g id="2-step" transform="translate(0.000000, 2739.000000)">
                <g id="illu/2step" transform="translate(343.000000, 38.736166)">
                    <g id="illu/2step/loading2" transform="translate(824.000000, 482.000000) rotate(25.000000) translate(-824.000000, -482.000000) translate(725.000000, 384.000000)">
                        <g id="Group-10" transform="translate(-0.000000, 0.000000)">
                            <path d="M98.3415238,12.9540611 L99.4510408,12.9535041 C146.503761,12.9298814 184.666677,51.0544974 184.690299,98.1072173 C184.690314,98.1356885 184.690314,98.1641598 184.6903,98.192631 L184.6903,98.192631 C184.666719,145.306371 146.479414,183.493736 99.3656734,183.517389 L98.2561563,183.517946 C51.2034364,183.541569 13.0405204,145.416953 13.0168977,98.3642329 C13.0168834,98.3357617 13.0168834,98.3072905 13.0168976,98.2788192 L13.0168976,98.2788192 C13.0404781,51.1650789 51.2277834,12.9777145 98.3415238,12.9540611 Z" id="Rectangle-Copy-16" fill="#325699" opacity="0.2" filter="url(#filter-1)" transform="translate(98.853599, 98.235725) rotate(-9.000000) translate(-98.853599, -98.235725) "></path>
                            <path d="M98.344034,17.9540605 C53.9897597,17.9763285 18.0390964,53.9270474 18.016897,98.2813217 C18.0168836,98.3215222 18.0168836,98.3215222 18.016897,98.3617227 C18.0391334,142.653019 53.9623496,178.540183 98.2536461,178.517947 L99.3631632,178.51739 C143.717437,178.495122 179.668101,142.544403 179.6903,98.1901285 C179.690314,98.149928 179.690314,98.149928 179.6903,98.1097276 C179.668064,53.818431 143.744848,17.9312671 99.4535511,17.9535035 L98.344034,17.9540605 Z" id="Rectangle-Copy-16" stroke="#FFFFFF" stroke-width="10" fill="#10BAEA" transform="translate(98.853599, 98.235725) rotate(-9.000000) translate(-98.853599, -98.235725) "></path>
                            <g id="Path-5" transform="translate(-0.000000, 0.000000)">
                                <mask id="mask-3" fill="white">
                                    <use xlink:href="#path-2"></use>
                                </mask>
                                <g id="Mask" transform="translate(98.853599, 98.235725) rotate(-9.000000) translate(-98.853599, -98.235725) "></g>
                                <polygon fill="#0FBCE8" mask="url(#mask-3)" points="101.360996 5.56732866 101.360996 99.0838195 62.3806899 181.238494 -14.7136929 135.791227 -14.7136929 45.7706799 33.7951322 -4.92050209"></polygon>
                            </g>
                        </g>
                        <g id="shape" transform="translate(73.938619, 61.077584)">
                            <mask id="mask-5" fill="white">
                                <use xlink:href="#path-4"></use>
                            </mask>
                            <g id="Clip-2"></g>
                            <polygon id="Fill-1" fill="#F7F8F9" mask="url(#mask-5)" points="-14.208836 89.4141631 65.0816205 89.4141631 65.0816205 -15.5565482 -14.208836 -15.5565482"></polygon>
                        </g>
                    </g>
                </g>
            </g>
        </g>
    </g>
</svg>