<?xml version="1.0" encoding="UTF-8"?>
<svg width="137px" height="43px" viewBox="0 0 137 43" version="1.1" xmlns="http://www.w3.org/2000/svg" xmlns:xlink="http://www.w3.org/1999/xlink">
    <!-- Generator: Sketch 53.2 (72643) - https://sketchapp.com -->
    <title>AppStore</title>
    <desc>Created with Sketch.</desc>
    <g id="Symbols" stroke="none" stroke-width="1" fill="none" fill-rule="evenodd">
        <g id="navigation-5" transform="translate(-1024.000000, -8.000000)">
            <g id="AppStore" transform="translate(1025.000000, 9.000000)">
                <rect id="Rectangle" stroke="#325699" stroke-width="2" x="0" y="-1.42108547e-14" width="135" height="40.9090909" rx="20.4545455"></rect>
                <text id="App-Store" font-family="FuturaPT-Demi, Futura PT" font-size="18" font-weight="500" fill="#325699">
                    <tspan x="41" y="30">App Store</tspan>
                </text>
                <path d="M33.3840177,27.0552683 C32.41054,28.5011946 31.4035668,29.9382269 29.8137016,29.9683479 C28.2490166,29.9984689 27.7474039,29.0270076 25.961953,29.0270076 C24.1746283,29.0270076 23.6155111,29.9382269 22.1381838,29.9984689 C20.6033285,30.0568135 19.4362445,28.4368021 18.4547442,26.997398 C16.4495699,24.0543159 14.9191417,18.675821 16.9774052,15.0460988 C17.9966523,13.2434996 19.8230238,12.1029812 21.8021747,12.0728721 C23.309484,12.0446959 24.7333942,13.1050379 25.6540521,13.1050379 C26.5761153,13.1050379 28.304413,11.8319753 30.1213683,12.0187017 C30.8819271,12.0506134 33.0165041,12.3299797 34.3873602,14.3674159 C34.2790269,14.4397419 31.8394768,15.8813279 31.8692246,18.884652 C31.8990894,22.4722522 34.9643964,23.664759 35,23.6810053 C34.9722432,23.7653204 34.5099819,25.3834345 33.3840177,27.0552683 Z M26.3406244,8.64040417 C27.2302669,7.72590676 28.7334346,7.04570484 29.9739814,7 C30.1324702,8.27028268 29.5498999,9.5423195 28.6894787,10.4589284 C27.8273241,11.3738914 26.4160304,12.0866313 25.0309864,11.9914644 C24.8427809,10.7486739 25.5408748,9.45254484 26.3406244,8.64040417 Z" id="logo" fill="#325699" fill-rule="nonzero"></path>
                <text id="Загрузите-в" font-family="FuturaPT-Medium, Futura PT" font-size="8" font-weight="400" fill="#325699">
                    <tspan x="41" y="13">Загрузите в</tspan>
                </text>
            </g>
        </g>
    </g>
</svg>