<?xml version="1.0" encoding="UTF-8"?>
<svg width="167px" height="52px" viewBox="0 0 167 52" version="1.1" xmlns="http://www.w3.org/2000/svg" xmlns:xlink="http://www.w3.org/1999/xlink">
    <!-- Generator: Sketch 53.2 (72643) - https://sketchapp.com -->
    <title>btn/apple</title>
    <desc>Created with Sketch.</desc>
    <g id="2nd" stroke="none" stroke-width="1" fill="none" fill-rule="evenodd">
        <g id="патрулькачества_landing_fin" transform="translate(-974.000000, -60.000000)">
            <g id="1-srceen" transform="translate(-9.000000, 0.000000)">
                <g id="headermain" transform="translate(131.000000, 61.000000)">
                    <g id="btn/apple" transform="translate(853.000000, 0.000000)">
                        <rect id="Rectangle" stroke="#325699" stroke-width="2" x="0" y="0" width="165" height="50" rx="25"></rect>
                        <path d="M63.54,36 L62.478,33.48 L57.636,33.48 L56.574,36 L54.036,36 L59.202,23.994 L61.038,23.994 L66.06,36 L63.54,36 Z M58.374,31.572 L61.794,31.572 L60.084,27.252 L58.374,31.572 Z M69.336,34.992 L69.336,40.122 L67.14,40.122 L67.14,28.206 L69.336,28.206 L69.336,29.214 C69.9240029,28.3739958 70.7699945,27.954 71.874,27.954 C72.9540054,27.954 73.8419965,28.3019965 74.538,28.998 C75.3180039,29.7780039 75.708,30.8099936 75.708,32.094 C75.708,33.4140066 75.3000041,34.4639961 74.484,35.244 C73.7639964,35.9160034 72.8820052,36.252 71.838,36.252 C70.7939948,36.252 69.9600031,35.8320042 69.336,34.992 Z M71.28,29.898 C70.7159972,29.898 70.2420019,30.0719983 69.858,30.42 C69.3659975,30.8400021 69.12,31.3979965 69.12,32.094 C69.12,32.8020035 69.3599976,33.3659979 69.84,33.786 C70.236002,34.1340017 70.7159972,34.308 71.28,34.308 C71.8680029,34.308 72.359998,34.1220019 72.756,33.75 C73.2120023,33.3299979 73.44,32.7780034 73.44,32.094 C73.44,31.4219966 73.2180022,30.8760021 72.774,30.456 C72.365998,30.0839981 71.8680029,29.898 71.28,29.898 Z M79.596,34.992 L79.596,40.122 L77.4,40.122 L77.4,28.206 L79.596,28.206 L79.596,29.214 C80.1840029,28.3739958 81.0299945,27.954 82.134,27.954 C83.2140054,27.954 84.1019965,28.3019965 84.798,28.998 C85.5780039,29.7780039 85.968,30.8099936 85.968,32.094 C85.968,33.4140066 85.5600041,34.4639961 84.744,35.244 C84.0239964,35.9160034 83.1420052,36.252 82.098,36.252 C81.0539948,36.252 80.2200031,35.8320042 79.596,34.992 Z M81.54,29.898 C80.9759972,29.898 80.5020019,30.0719983 80.118,30.42 C79.6259975,30.8400021 79.38,31.3979965 79.38,32.094 C79.38,32.8020035 79.6199976,33.3659979 80.1,33.786 C80.496002,34.1340017 80.9759972,34.308 81.54,34.308 C82.1280029,34.308 82.619998,34.1220019 83.016,33.75 C83.4720023,33.3299979 83.7,32.7780034 83.7,32.094 C83.7,31.4219966 83.4780022,30.8760021 83.034,30.456 C82.625998,30.0839981 82.1280029,29.898 81.54,29.898 Z M99.306,25.128 L98.082,26.73 C97.5659974,26.0459966 96.912004,25.704 96.12,25.704 C95.5439971,25.704 95.1240013,25.8449986 94.86,26.127 C94.5959987,26.4090014 94.464,26.7359981 94.464,27.108 C94.464,27.4320016 94.5899987,27.7019989 94.842,27.918 C95.034001,28.0980009 95.5139962,28.3259986 96.282,28.602 C97.4700059,29.010002 98.2799978,29.411998 98.712,29.808 C99.3960034,30.4200031 99.738,31.2599947 99.738,32.328 C99.738,33.5040059 99.3510039,34.4549964 98.577,35.181 C97.8029961,35.9070036 96.7980062,36.27 95.562,36.27 C93.8339914,36.27 92.4540052,35.5140076 91.422,34.002 L92.952,32.544 C93.2160013,33.0840027 93.5819977,33.4859987 94.05,33.75 C94.5180023,34.0140013 94.9919976,34.146 95.472,34.146 C96.0120027,34.146 96.4559983,33.9930015 96.804,33.687 C97.1520017,33.3809985 97.326,32.9820025 97.326,32.49 C97.326,32.0699979 97.1700016,31.7100015 96.858,31.41 C96.5699986,31.1459987 95.9520047,30.8520016 95.004,30.528 C94.1159956,30.2279985 93.4500022,29.880002 93.006,29.484 C92.3699968,28.9319972 92.052,28.1880047 92.052,27.252 C92.052,26.2799951 92.3819967,25.4490034 93.042,24.759 C93.7020033,24.0689965 94.6559938,23.724 95.904,23.724 C97.2600068,23.724 98.3939954,24.1919953 99.306,25.128 Z M105.174,30.078 L103.662,30.078 L103.662,36 L101.466,36 L101.466,30.078 L100.602,30.078 L100.602,28.206 L101.466,28.206 L101.466,25.542 L103.662,25.542 L103.662,28.206 L105.174,28.206 L105.174,30.078 Z M107.244,29.052 C108.036004,28.3199963 109.085993,27.954 110.394,27.954 C111.702007,27.954 112.751996,28.3199963 113.544,29.052 C114.420004,29.844004 114.858,30.8639938 114.858,32.112 C114.858,33.3480062 114.420004,34.361996 113.544,35.154 C112.751996,35.8860037 111.702007,36.252 110.394,36.252 C109.085993,36.252 108.036004,35.8860037 107.244,35.154 C106.367996,34.361996 105.93,33.3480062 105.93,32.112 C105.93,30.8639938 106.367996,29.844004 107.244,29.052 Z M108.828,33.66 C109.248002,34.0920022 109.769997,34.308 110.394,34.308 C111.018003,34.308 111.539998,34.0920022 111.96,33.66 C112.380002,33.2279978 112.59,32.712003 112.59,32.112 C112.59,31.4999969 112.380002,30.9780022 111.96,30.546 C111.539998,30.1139978 111.018003,29.898 110.394,29.898 C109.769997,29.898 109.248002,30.1139978 108.828,30.546 C108.407998,30.9780022 108.198,31.4999969 108.198,32.112 C108.198,32.712003 108.407998,33.2279978 108.828,33.66 Z M116.55,36 L116.55,28.206 L118.746,28.206 L118.746,29.376 C119.010001,28.8719975 119.333998,28.5120011 119.718,28.296 C120.078002,28.0679989 120.509997,27.954 121.014,27.954 C121.302001,27.954 121.613998,28.0139994 121.95,28.134 L121.662,30.186 C121.385999,29.993999 121.044002,29.898 120.636,29.898 C119.999997,29.898 119.514002,30.1079979 119.178,30.528 C118.889999,30.8880018 118.746,31.463996 118.746,32.256 L118.746,36 L116.55,36 Z M128.664,33.498 L130.68,33.822 C130.596,34.0380011 130.485001,34.2509989 130.347,34.461 C130.208999,34.6710011 129.996001,34.9289985 129.708,35.235 C129.419999,35.5410015 129.030002,35.7869991 128.538,35.973 C128.045998,36.1590009 127.482003,36.252 126.846,36.252 C125.621994,36.252 124.626004,35.8860037 123.858,35.154 C123.041996,34.3859962 122.634,33.3720063 122.634,32.112 C122.634,30.8639938 123.029996,29.844004 123.822,29.052 C124.566004,28.3199963 125.543994,27.954 126.756,27.954 C128.076007,27.954 129.089996,28.3799957 129.798,29.232 C130.422003,29.9760037 130.734,30.9959935 130.734,32.292 L130.734,32.472 L124.902,32.472 C124.902,33.0000026 125.027999,33.4379983 125.28,33.786 C125.640002,34.2780025 126.161997,34.524 126.846,34.524 C127.662004,34.524 128.267998,34.1820034 128.664,33.498 Z M124.974,31.068 L128.664,31.068 C128.58,30.5639975 128.361002,30.1770013 128.007,29.907 C127.652998,29.6369986 127.254002,29.502 126.81,29.502 C126.377998,29.502 125.985002,29.6399986 125.631,29.916 C125.276998,30.1920014 125.058,30.5759975 124.974,31.068 Z" id="AppStore" fill="#325699" fill-rule="nonzero"></path>
                        <path d="M41.7891168,32.7865031 C40.7369558,34.3643989 39.6485919,35.9325889 37.9302226,35.965459 C36.2390687,35.9983292 35.6969121,34.9382027 33.7671485,34.9382027 C31.8353596,34.9382027 31.2310505,35.9325889 29.6343152,35.9983292 C27.975402,36.0619989 26.713986,34.2941292 25.653154,32.723351 C23.4859074,29.5116543 21.8317791,23.642265 24.056406,19.6812587 C25.1580358,17.7141365 27.1320276,16.4695231 29.2711474,16.4366659 C30.9002882,16.4059181 32.4392889,17.5630374 33.4343608,17.5630374 C34.4309517,17.5630374 36.2989426,16.1737825 38.2627571,16.3775515 C39.0847896,16.4123757 41.3918982,16.7172397 42.8735566,18.9406324 C42.756467,19.0195596 40.1197353,20.592719 40.1518874,23.8701559 C40.1841662,27.7851959 43.4972329,29.0865425 43.5357143,29.1042717 C43.505714,29.1962822 43.0060894,30.9620813 41.7891168,32.7865031 Z M35.150669,12.7575759 C36.1038574,11.7777572 37.7143943,11.0489695 39.0435515,11 C39.213361,12.3610172 38.5891784,13.7239137 37.6672987,14.7059947 C36.7435616,15.6863122 35.2314612,16.4499621 33.7474855,16.3479975 C33.5458367,15.0164363 34.2937944,13.6277266 35.150669,12.7575759 Z" id="apple" fill="#325699" fill-rule="nonzero"></path>
                        <path d="M55.096,12.872 L54.56,12.352 C54.7573343,12.0906654 54.9866654,11.8986673 55.248,11.776 C55.514668,11.642666 55.8373314,11.576 56.216,11.576 C56.749336,11.576 57.1626652,11.7173319 57.456,12 C57.7120013,12.2506679 57.84,12.5626648 57.84,12.936 C57.84,13.1920013 57.7813339,13.4133324 57.664,13.6 C57.5519994,13.792001 57.392001,13.9466661 57.184,14.064 C57.4773348,14.138667 57.7173324,14.2959988 57.904,14.536 C58.0853342,14.7653345 58.176,15.0666648 58.176,15.44 C58.176,15.9200024 57.9973351,16.3173318 57.64,16.632 C57.2773315,16.9413349 56.7973363,17.096 56.2,17.096 C55.6933308,17.096 55.2560018,16.9573347 54.888,16.68 C54.5999986,16.4559989 54.3733342,16.1680018 54.208,15.816 L54.928,15.448 C55.0346672,15.7200014 55.1999989,15.9359992 55.424,16.096 C55.6586678,16.2613342 55.9519982,16.344 56.304,16.344 C56.6560018,16.344 56.927999,16.248001 57.12,16.056 C57.2906675,15.8853325 57.376,15.666668 57.376,15.4 C57.376,15.1226653 57.272001,14.9146674 57.064,14.776 C56.8666657,14.6373326 56.5440022,14.568 56.096,14.568 L55.616,14.568 L55.616,13.8 L56.048,13.8 C56.389335,13.8 56.6453325,13.7280007 56.816,13.584 C56.9760008,13.450666 57.056,13.2693345 57.056,13.04 C57.056,12.7999988 56.9706675,12.6160006 56.8,12.488 C56.6613326,12.3813328 56.4560014,12.328 56.184,12.328 C55.9279987,12.328 55.7120009,12.3786662 55.536,12.48 C55.3653325,12.5760005 55.2186673,12.7066658 55.096,12.872 Z M61.52,14.024 L61.52,13.632 L62.304,13.632 L62.304,17 L61.52,17 L61.52,16.648 C61.2586654,16.9520015 60.9226687,17.104 60.512,17.104 C60.0159975,17.104 59.6200015,16.9280018 59.324,16.576 C59.0279985,16.2239982 58.88,15.8026691 58.88,15.312 C58.88,14.778664 59.0386651,14.3506683 59.356,14.028 C59.6733349,13.7053317 60.061331,13.544 60.52,13.544 C60.9413354,13.544 61.2746654,13.7039984 61.52,14.024 Z M60.616,14.248 C60.3386653,14.248 60.1133342,14.351999 59.94,14.56 C59.7666658,14.768001 59.68,15.0239985 59.68,15.328 C59.68,15.6266682 59.7666658,15.879999 59.94,16.088 C60.1133342,16.296001 60.3386653,16.4 60.616,16.4 C60.882668,16.4 61.1079991,16.3066676 61.292,16.12 C61.4760009,15.9333324 61.568,15.6720017 61.568,15.336 C61.568,14.9893316 61.4760009,14.7213343 61.292,14.532 C61.1079991,14.3426657 60.882668,14.248 60.616,14.248 Z M63.296,17 L63.296,13.632 L65.36,13.632 L65.36,14.352 L64.08,14.352 L64.08,17 L63.296,17 Z M66.704,16.608 L66.704,18.832 L65.92,18.832 L65.92,13.632 L66.704,13.632 L66.704,14 C66.9600013,13.6959985 67.2933313,13.544 67.704,13.544 C68.162669,13.544 68.5506651,13.7053317 68.868,14.028 C69.1853349,14.3506683 69.344,14.7733307 69.344,15.296 C69.344,15.8346694 69.1786683,16.270665 68.848,16.604 C68.5173317,16.937335 68.1386688,17.104 67.712,17.104 C67.311998,17.104 66.9760014,16.9386683 66.704,16.608 Z M67.608,14.248 C67.341332,14.248 67.1160009,14.3426657 66.932,14.532 C66.7479991,14.7213343 66.656,14.9893316 66.656,15.336 C66.656,15.6720017 66.7479991,15.9333324 66.932,16.12 C67.1160009,16.3066676 67.341332,16.4 67.608,16.4 C67.8853347,16.4 68.1106658,16.296001 68.284,16.088 C68.4573342,15.879999 68.544,15.6266682 68.544,15.328 C68.544,15.0239985 68.4573342,14.768001 68.284,14.56 C68.1106658,14.351999 67.8853347,14.248 67.608,14.248 Z M69.912,18.832 L71.152,16.472 L69.712,13.632 L70.656,13.632 L71.616,15.6 L72.592,13.632 L73.472,13.632 L70.792,18.832 L69.912,18.832 Z M74.472,14.504 L73.968,14.064 C74.0960006,13.9093326 74.2666656,13.7840005 74.48,13.688 C74.7040011,13.5919995 74.9679985,13.544 75.272,13.544 C75.6240018,13.544 75.9093322,13.6213326 76.128,13.776 C76.3626678,13.9466675 76.48,14.1759986 76.48,14.464 C76.48,14.6506676 76.4320005,14.8053327 76.336,14.928 C76.2559996,15.0346672 76.149334,15.1146664 76.016,15.168 C76.2186677,15.2106669 76.3813327,15.2933327 76.504,15.416 C76.6480007,15.5600007 76.72,15.7466655 76.72,15.976 C76.72,16.2800015 76.624001,16.527999 76.432,16.72 C76.1759987,16.9760013 75.781336,17.104 75.248,17.104 C74.8906649,17.104 74.5973345,17.037334 74.368,16.904 C74.1279988,16.7653326 73.9520006,16.5653346 73.84,16.304 L74.464,15.984 C74.538667,16.1440008 74.6373327,16.261333 74.76,16.336 C74.893334,16.4213338 75.0613323,16.464 75.264,16.464 C75.5093346,16.464 75.6879994,16.4080006 75.8,16.296 C75.8800004,16.2053329 75.92,16.1066672 75.92,16 C75.92,15.8879994 75.8853337,15.7973337 75.816,15.728 C75.7253329,15.6319995 75.5386681,15.584 75.256,15.584 L74.904,15.584 L74.904,14.944 L75.2,14.944 C75.3706675,14.944 75.4986662,14.914667 75.584,14.856 C75.6800005,14.781333 75.728,14.6826673 75.728,14.56 C75.728,14.4319994 75.6800005,14.3360003 75.584,14.272 C75.5039996,14.213333 75.3786675,14.184 75.208,14.184 C75.0479992,14.184 74.901334,14.2159997 74.768,14.28 C74.6559994,14.3333336 74.5573338,14.4079995 74.472,14.504 Z M77.536,13.632 L78.32,13.632 L78.32,15.544 L80.624,13.328 L80.624,17 L79.84,17 L79.84,15.04 L77.536,17.256 L77.536,13.632 Z M83.936,14.352 L82.952,14.352 L82.952,17 L82.168,17 L82.168,14.352 L81.184,14.352 L81.184,13.632 L83.936,13.632 L83.936,14.352 Z M86.856,15.864 L87.512,16.232 C87.3626659,16.498668 87.1733345,16.7039993 86.944,16.848 C86.6826654,17.0186675 86.352002,17.104 85.952,17.104 C85.4826643,17.104 85.1040014,16.9600014 84.816,16.672 C84.4853317,16.3413317 84.32,15.9120026 84.32,15.384 C84.32,14.8293306 84.4986649,14.3680018 84.856,14 C85.1600015,13.6959985 85.5359978,13.544 85.984,13.544 C86.4213355,13.544 86.7813319,13.6906652 87.064,13.984 C87.3786682,14.309335 87.536,14.7839969 87.536,15.408 L87.536,15.504 L85.12,15.504 C85.1413334,15.7866681 85.2373325,16.0133325 85.408,16.184 C85.5520007,16.3280007 85.7519987,16.4 86.008,16.4 C86.216001,16.4 86.3946659,16.3440006 86.544,16.232 C86.6666673,16.1359995 86.7706662,16.0133341 86.856,15.864 Z M85.176,14.864 L86.736,14.864 C86.7039998,14.6773324 86.6240006,14.5253339 86.496,14.408 C86.3573326,14.2799994 86.1813344,14.216 85.968,14.216 C85.7439989,14.216 85.5600007,14.2879993 85.416,14.432 C85.2986661,14.5386672 85.2186669,14.6826658 85.176,14.864 Z M90.216,13.632 L91.536,13.632 C91.8720017,13.632 92.1279991,13.698666 92.304,13.832 C92.512001,13.9973342 92.616,14.213332 92.616,14.48 C92.616,14.7840015 92.482668,15.002666 92.216,15.136 C92.3866675,15.1680002 92.538666,15.2426661 92.672,15.36 C92.8480009,15.5200008 92.936,15.7359986 92.936,16.008 C92.936,16.333335 92.8133346,16.5893324 92.568,16.776 C92.3653323,16.9253341 92.1066682,17 91.792,17 L90.216,17 L90.216,13.632 Z M91,14.944 L91.4,14.944 C91.5386674,14.944 91.6426663,14.9200002 91.712,14.872 C91.8133338,14.8079997 91.864,14.7173339 91.864,14.6 C91.864,14.4879994 91.8186671,14.4000003 91.728,14.336 C91.6639997,14.2933331 91.5493342,14.272 91.384,14.272 L91,14.272 L91,14.944 Z M91,16.36 L91.584,16.36 C91.7600009,16.36 91.8959995,16.3280003 91.992,16.264 C92.0986672,16.1946663 92.152,16.0960006 92.152,15.968 C92.152,15.8293326 92.1013338,15.730667 92,15.672 C91.9093329,15.613333 91.7786675,15.584 91.608,15.584 L91,15.584 L91,16.36 Z" id="Загрузитев" fill="#325699" fill-rule="nonzero"></path>
                    </g>
                </g>
            </g>
        </g>
    </g>
</svg>