<?xml version="1.0" encoding="UTF-8"?>
<svg width="167px" height="52px" viewBox="0 0 167 52" version="1.1" xmlns="http://www.w3.org/2000/svg" xmlns:xlink="http://www.w3.org/1999/xlink">
    <!-- Generator: Sketch 53.2 (72643) - https://sketchapp.com -->
    <title>btn/google</title>
    <desc>Created with Sketch.</desc>
    <g id="2nd" stroke="none" stroke-width="1" fill="none" fill-rule="evenodd">
        <g id="патрулькачества_landing_fin" transform="translate(-1149.000000, -60.000000)">
            <g id="1-srceen" transform="translate(-9.000000, 0.000000)">
                <g id="headermain" transform="translate(131.000000, 61.000000)">
                    <g id="btn/google" transform="translate(1028.000000, 0.000000)">
                        <rect id="Rectangle" stroke="#325699" stroke-width="2" x="0" y="0" width="165" height="50" rx="25"></rect>
                        <path d="M60.624,32.08 L60.624,30.288 L65.52,30.288 L65.52,30.416 C65.52,32.3253429 64.9973386,33.7973282 63.952,34.832 C63.0133286,35.7706714 61.7493413,36.24 60.16,36.24 C58.5386586,36.24 57.2480048,35.7600048 56.288,34.8 C55.2319947,33.7439947 54.704,32.3733418 54.704,30.688 C54.704,29.087992 55.2266614,27.7653386 56.272,26.72 C57.338672,25.6319946 58.7413246,25.088 60.48,25.088 C61.4186714,25.088 62.2399965,25.2746648 62.944,25.648 C63.7653374,26.0640021 64.4319974,26.7146622 64.944,27.6 L63.136,28.576 C62.8479986,28.0213306 62.4320027,27.6000014 61.888,27.312 C61.4399978,27.0879989 60.9386694,26.976 60.384,26.976 C59.3813283,26.976 58.5600032,27.2906635 57.92,27.92 C57.2053298,28.6133368 56.848,29.5519941 56.848,30.736 C56.848,31.8560056 57.1999965,32.7573299 57.904,33.44 C58.5333365,34.048003 59.3226619,34.352 60.272,34.352 C61.1040042,34.352 61.8026638,34.1386688 62.368,33.712 C62.8800026,33.3173314 63.2159992,32.7733368 63.376,32.08 L60.624,32.08 Z M67.968,29.824 C68.6720035,29.1733301 69.6053275,28.848 70.768,28.848 C71.9306725,28.848 72.8639965,29.1733301 73.568,29.824 C74.3466706,30.5280035 74.736,31.4346611 74.736,32.544 C74.736,33.6426722 74.3466706,34.5439965 73.568,35.248 C72.8639965,35.8986699 71.9306725,36.224 70.768,36.224 C69.6053275,36.224 68.6720035,35.8986699 67.968,35.248 C67.1893294,34.5439965 66.8,33.6426722 66.8,32.544 C66.8,31.4346611 67.1893294,30.5280035 67.968,29.824 Z M69.376,33.92 C69.7493352,34.3040019 70.2133306,34.496 70.768,34.496 C71.3226694,34.496 71.7866648,34.3040019 72.16,33.92 C72.5333352,33.5359981 72.72,33.077336 72.72,32.544 C72.72,31.9999973 72.5333352,31.5360019 72.16,31.152 C71.7866648,30.7679981 71.3226694,30.576 70.768,30.576 C70.2133306,30.576 69.7493352,30.7679981 69.376,31.152 C69.0026648,31.5360019 68.816,31.9999973 68.816,32.544 C68.816,33.077336 69.0026648,33.5359981 69.376,33.92 Z M77.056,29.824 C77.7600035,29.1733301 78.6933275,28.848 79.856,28.848 C81.0186725,28.848 81.9519965,29.1733301 82.656,29.824 C83.4346706,30.5280035 83.824,31.4346611 83.824,32.544 C83.824,33.6426722 83.4346706,34.5439965 82.656,35.248 C81.9519965,35.8986699 81.0186725,36.224 79.856,36.224 C78.6933275,36.224 77.7600035,35.8986699 77.056,35.248 C76.2773294,34.5439965 75.888,33.6426722 75.888,32.544 C75.888,31.4346611 76.2773294,30.5280035 77.056,29.824 Z M78.464,33.92 C78.8373352,34.3040019 79.3013306,34.496 79.856,34.496 C80.4106694,34.496 80.8746648,34.3040019 81.248,33.92 C81.6213352,33.5359981 81.808,33.077336 81.808,32.544 C81.808,31.9999973 81.6213352,31.5360019 81.248,31.152 C80.8746648,30.7679981 80.4106694,30.576 79.856,30.576 C79.3013306,30.576 78.8373352,30.7679981 78.464,31.152 C78.0906648,31.5360019 77.904,31.9999973 77.904,32.544 C77.904,33.077336 78.0906648,33.5359981 78.464,33.92 Z M90.608,29.968 L90.608,29.072 L92.56,29.072 L92.56,35.68 C92.56,36.3306699 92.4986673,36.8986642 92.376,37.384 C92.2533327,37.8693358 91.9946686,38.3093314 91.6,38.704 C90.9493301,39.3546699 90.0373392,39.68 88.864,39.68 C87.7333277,39.68 86.8693363,39.413336 86.272,38.88 C85.7066638,38.3999976 85.3333342,37.7120045 85.152,36.816 L87.264,36.816 C87.3493338,37.1680018 87.5093322,37.4453323 87.744,37.648 C88.010668,37.8933346 88.4053307,38.016 88.928,38.016 C89.4080024,38.016 89.8026651,37.8720014 90.112,37.584 C90.4426683,37.2639984 90.608,36.7520035 90.608,36.048 L90.608,35.072 C90.1066642,35.8400038 89.3973379,36.224 88.48,36.224 C87.5199952,36.224 86.7200032,35.9093365 86.08,35.28 C85.3439963,34.5439963 84.976,33.6266722 84.976,32.528 C84.976,31.386661 85.3333298,30.4693368 86.048,29.776 C86.6880032,29.1573302 87.4826619,28.848 88.432,28.848 C89.3920048,28.848 90.1173309,29.2213296 90.608,29.968 Z M88.912,30.576 C88.3893307,30.576 87.957335,30.7359984 87.616,31.056 C87.1999979,31.4293352 86.992,31.919997 86.992,32.528 C86.992,33.0720027 87.162665,33.5253315 87.504,33.888 C87.8773352,34.2933354 88.3466638,34.496 88.912,34.496 C89.4240026,34.496 89.8559982,34.3360016 90.208,34.016 C90.6240021,33.6319981 90.832,33.136003 90.832,32.528 C90.832,31.994664 90.6453352,31.5306686 90.272,31.136 C89.9093315,30.7626648 89.4560027,30.576 88.912,30.576 Z M94.416,24.336 L96.368,24.336 L96.368,36 L94.416,36 L94.416,24.336 Z M103.232,33.776 L105.024,34.064 C104.949333,34.256001 104.850667,34.4453324 104.728,34.632 C104.605333,34.8186676 104.416001,35.0479986 104.16,35.32 C103.903999,35.5920014 103.557336,35.8106658 103.12,35.976 C102.682664,36.1413342 102.181336,36.224 101.616,36.224 C100.527995,36.224 99.6426701,35.8986699 98.96,35.248 C98.234663,34.5653299 97.872,33.6640056 97.872,32.544 C97.872,31.4346611 98.2239965,30.5280035 98.928,29.824 C99.5893366,29.1733301 100.458661,28.848 101.536,28.848 C102.709339,28.848 103.610664,29.2266629 104.24,29.984 C104.794669,30.6453366 105.072,31.5519942 105.072,32.704 L105.072,32.864 L99.888,32.864 C99.888,33.3333357 99.9999989,33.7226651 100.224,34.032 C100.544002,34.4693355 101.007997,34.688 101.616,34.688 C102.341337,34.688 102.879998,34.384003 103.232,33.776 Z M99.952,31.616 L103.232,31.616 C103.157333,31.1679978 102.962668,30.8240012 102.648,30.584 C102.333332,30.3439988 101.978669,30.224 101.584,30.224 C101.199998,30.224 100.850668,30.3466654 100.536,30.592 C100.221332,30.8373346 100.026667,31.1786645 99.952,31.616 Z M111.616,35.072 L111.616,39.68 L110.464,39.68 L110.464,29.36 L111.616,29.36 L111.616,30.288 C112.20267,29.562663 112.959995,29.2 113.888,29.2 C114.880005,29.2 115.666664,29.5493298 116.248,30.248 C116.829336,30.9466702 117.12,31.7706619 117.12,32.72 C117.12,33.6800048 116.832003,34.4986633 116.256,35.176 C115.679997,35.8533367 114.906672,36.192 113.936,36.192 C112.965328,36.192 112.192003,35.8186704 111.616,35.072 Z M113.776,35.168 C114.42667,35.168 114.949331,34.930669 115.344,34.456 C115.738669,33.981331 115.936,33.4026701 115.936,32.72 C115.936,31.9519962 115.717336,31.3440022 115.28,30.896 C114.842664,30.4479978 114.336003,30.224 113.76,30.224 C113.183997,30.224 112.672002,30.4479978 112.224,30.896 C111.775998,31.3440022 111.552,31.9466629 111.552,32.704 C111.552,33.3973368 111.757331,33.981331 112.168,34.456 C112.578669,34.930669 113.114663,35.168 113.776,35.168 Z M118.88,24.336 L120.032,24.336 L120.032,36 L118.88,36 L118.88,24.336 Z M127.296,30.304 L127.296,29.36 L128.448,29.36 L128.448,36 L127.296,36 L127.296,35.072 C126.719997,35.8186704 125.962671,36.192 125.024,36.192 C124.127996,36.192 123.365336,35.8826698 122.736,35.264 C122.106664,34.6453302 121.792,33.7813389 121.792,32.672 C121.792,31.5839946 122.103997,30.7333364 122.728,30.12 C123.352003,29.5066636 124.117329,29.2 125.024,29.2 C125.984005,29.2 126.741331,29.5679963 127.296,30.304 Z M125.152,30.224 C124.543997,30.224 124.029335,30.4399978 123.608,30.872 C123.186665,31.3040022 122.976,31.9039962 122.976,32.672 C122.976,33.4080037 123.170665,34.0079977 123.56,34.472 C123.949335,34.9360023 124.479997,35.168 125.152,35.168 C125.824003,35.168 126.359998,34.9280024 126.76,34.448 C127.160002,33.9679976 127.36,33.3813368 127.36,32.688 C127.36,31.8986627 127.136002,31.2906688 126.688,30.864 C126.239998,30.4373312 125.728003,30.224 125.152,30.224 Z M130.608,39.68 L132.72,35.376 L129.664,29.36 L130.976,29.36 L133.328,34.112 L135.488,29.36 L136.768,29.36 L131.888,39.68 L130.608,39.68 Z" id="Googleplay" fill="#325699" fill-rule="nonzero"></path>
                        <path d="M22,34.289822 L22,12.7126911 C22,11.9597381 22.4314203,11.308883 23.0574851,11 L35.3928571,23.4975757 L23.0525241,36 C22.4291402,35.6901778 22,35.0408331 22,34.289822 Z M38.9642857,27.2637285 L25.5714286,35.1071429 L36.134052,24.3928571 L38.9642857,27.2637285 Z M43.536732,21.5674754 C44.0137305,21.9098662 44.3214286,22.4493722 44.3214286,23.0562071 C44.3214286,23.6539233 44.0230547,24.1861842 43.5583108,24.5291996 L40.5121001,26.1785714 L37.1785714,23.0525846 L40.5098357,19.9285714 L43.536732,21.5674754 Z M25.5714286,11.8928571 L38.9642857,19.7362881 L36.1340611,22.6071429 L25.5714286,11.8928571 Z" id="google" fill="#325699" fill-rule="nonzero"></path>
                        <path d="M55.096,12.872 L54.56,12.352 C54.7573343,12.0906654 54.9866654,11.8986673 55.248,11.776 C55.514668,11.642666 55.8373314,11.576 56.216,11.576 C56.749336,11.576 57.1626652,11.7173319 57.456,12 C57.7120013,12.2506679 57.84,12.5626648 57.84,12.936 C57.84,13.1920013 57.7813339,13.4133324 57.664,13.6 C57.5519994,13.792001 57.392001,13.9466661 57.184,14.064 C57.4773348,14.138667 57.7173324,14.2959988 57.904,14.536 C58.0853342,14.7653345 58.176,15.0666648 58.176,15.44 C58.176,15.9200024 57.9973351,16.3173318 57.64,16.632 C57.2773315,16.9413349 56.7973363,17.096 56.2,17.096 C55.6933308,17.096 55.2560018,16.9573347 54.888,16.68 C54.5999986,16.4559989 54.3733342,16.1680018 54.208,15.816 L54.928,15.448 C55.0346672,15.7200014 55.1999989,15.9359992 55.424,16.096 C55.6586678,16.2613342 55.9519982,16.344 56.304,16.344 C56.6560018,16.344 56.927999,16.248001 57.12,16.056 C57.2906675,15.8853325 57.376,15.666668 57.376,15.4 C57.376,15.1226653 57.272001,14.9146674 57.064,14.776 C56.8666657,14.6373326 56.5440022,14.568 56.096,14.568 L55.616,14.568 L55.616,13.8 L56.048,13.8 C56.389335,13.8 56.6453325,13.7280007 56.816,13.584 C56.9760008,13.450666 57.056,13.2693345 57.056,13.04 C57.056,12.7999988 56.9706675,12.6160006 56.8,12.488 C56.6613326,12.3813328 56.4560014,12.328 56.184,12.328 C55.9279987,12.328 55.7120009,12.3786662 55.536,12.48 C55.3653325,12.5760005 55.2186673,12.7066658 55.096,12.872 Z M61.52,14.024 L61.52,13.632 L62.304,13.632 L62.304,17 L61.52,17 L61.52,16.648 C61.2586654,16.9520015 60.9226687,17.104 60.512,17.104 C60.0159975,17.104 59.6200015,16.9280018 59.324,16.576 C59.0279985,16.2239982 58.88,15.8026691 58.88,15.312 C58.88,14.778664 59.0386651,14.3506683 59.356,14.028 C59.6733349,13.7053317 60.061331,13.544 60.52,13.544 C60.9413354,13.544 61.2746654,13.7039984 61.52,14.024 Z M60.616,14.248 C60.3386653,14.248 60.1133342,14.351999 59.94,14.56 C59.7666658,14.768001 59.68,15.0239985 59.68,15.328 C59.68,15.6266682 59.7666658,15.879999 59.94,16.088 C60.1133342,16.296001 60.3386653,16.4 60.616,16.4 C60.882668,16.4 61.1079991,16.3066676 61.292,16.12 C61.4760009,15.9333324 61.568,15.6720017 61.568,15.336 C61.568,14.9893316 61.4760009,14.7213343 61.292,14.532 C61.1079991,14.3426657 60.882668,14.248 60.616,14.248 Z M63.296,17 L63.296,13.632 L65.36,13.632 L65.36,14.352 L64.08,14.352 L64.08,17 L63.296,17 Z M66.704,16.608 L66.704,18.832 L65.92,18.832 L65.92,13.632 L66.704,13.632 L66.704,14 C66.9600013,13.6959985 67.2933313,13.544 67.704,13.544 C68.162669,13.544 68.5506651,13.7053317 68.868,14.028 C69.1853349,14.3506683 69.344,14.7733307 69.344,15.296 C69.344,15.8346694 69.1786683,16.270665 68.848,16.604 C68.5173317,16.937335 68.1386688,17.104 67.712,17.104 C67.311998,17.104 66.9760014,16.9386683 66.704,16.608 Z M67.608,14.248 C67.341332,14.248 67.1160009,14.3426657 66.932,14.532 C66.7479991,14.7213343 66.656,14.9893316 66.656,15.336 C66.656,15.6720017 66.7479991,15.9333324 66.932,16.12 C67.1160009,16.3066676 67.341332,16.4 67.608,16.4 C67.8853347,16.4 68.1106658,16.296001 68.284,16.088 C68.4573342,15.879999 68.544,15.6266682 68.544,15.328 C68.544,15.0239985 68.4573342,14.768001 68.284,14.56 C68.1106658,14.351999 67.8853347,14.248 67.608,14.248 Z M69.912,18.832 L71.152,16.472 L69.712,13.632 L70.656,13.632 L71.616,15.6 L72.592,13.632 L73.472,13.632 L70.792,18.832 L69.912,18.832 Z M74.472,14.504 L73.968,14.064 C74.0960006,13.9093326 74.2666656,13.7840005 74.48,13.688 C74.7040011,13.5919995 74.9679985,13.544 75.272,13.544 C75.6240018,13.544 75.9093322,13.6213326 76.128,13.776 C76.3626678,13.9466675 76.48,14.1759986 76.48,14.464 C76.48,14.6506676 76.4320005,14.8053327 76.336,14.928 C76.2559996,15.0346672 76.149334,15.1146664 76.016,15.168 C76.2186677,15.2106669 76.3813327,15.2933327 76.504,15.416 C76.6480007,15.5600007 76.72,15.7466655 76.72,15.976 C76.72,16.2800015 76.624001,16.527999 76.432,16.72 C76.1759987,16.9760013 75.781336,17.104 75.248,17.104 C74.8906649,17.104 74.5973345,17.037334 74.368,16.904 C74.1279988,16.7653326 73.9520006,16.5653346 73.84,16.304 L74.464,15.984 C74.538667,16.1440008 74.6373327,16.261333 74.76,16.336 C74.893334,16.4213338 75.0613323,16.464 75.264,16.464 C75.5093346,16.464 75.6879994,16.4080006 75.8,16.296 C75.8800004,16.2053329 75.92,16.1066672 75.92,16 C75.92,15.8879994 75.8853337,15.7973337 75.816,15.728 C75.7253329,15.6319995 75.5386681,15.584 75.256,15.584 L74.904,15.584 L74.904,14.944 L75.2,14.944 C75.3706675,14.944 75.4986662,14.914667 75.584,14.856 C75.6800005,14.781333 75.728,14.6826673 75.728,14.56 C75.728,14.4319994 75.6800005,14.3360003 75.584,14.272 C75.5039996,14.213333 75.3786675,14.184 75.208,14.184 C75.0479992,14.184 74.901334,14.2159997 74.768,14.28 C74.6559994,14.3333336 74.5573338,14.4079995 74.472,14.504 Z M77.536,13.632 L78.32,13.632 L78.32,15.544 L80.624,13.328 L80.624,17 L79.84,17 L79.84,15.04 L77.536,17.256 L77.536,13.632 Z M83.936,14.352 L82.952,14.352 L82.952,17 L82.168,17 L82.168,14.352 L81.184,14.352 L81.184,13.632 L83.936,13.632 L83.936,14.352 Z M86.856,15.864 L87.512,16.232 C87.3626659,16.498668 87.1733345,16.7039993 86.944,16.848 C86.6826654,17.0186675 86.352002,17.104 85.952,17.104 C85.4826643,17.104 85.1040014,16.9600014 84.816,16.672 C84.4853317,16.3413317 84.32,15.9120026 84.32,15.384 C84.32,14.8293306 84.4986649,14.3680018 84.856,14 C85.1600015,13.6959985 85.5359978,13.544 85.984,13.544 C86.4213355,13.544 86.7813319,13.6906652 87.064,13.984 C87.3786682,14.309335 87.536,14.7839969 87.536,15.408 L87.536,15.504 L85.12,15.504 C85.1413334,15.7866681 85.2373325,16.0133325 85.408,16.184 C85.5520007,16.3280007 85.7519987,16.4 86.008,16.4 C86.216001,16.4 86.3946659,16.3440006 86.544,16.232 C86.6666673,16.1359995 86.7706662,16.0133341 86.856,15.864 Z M85.176,14.864 L86.736,14.864 C86.7039998,14.6773324 86.6240006,14.5253339 86.496,14.408 C86.3573326,14.2799994 86.1813344,14.216 85.968,14.216 C85.7439989,14.216 85.5600007,14.2879993 85.416,14.432 C85.2986661,14.5386672 85.2186669,14.6826658 85.176,14.864 Z M90.216,17 L90.216,13.632 L91,13.632 L91,14.88 L92.392,14.88 L92.392,13.632 L93.176,13.632 L93.176,17 L92.392,17 L92.392,15.6 L91,15.6 L91,17 L90.216,17 Z M96.632,14.024 L96.632,13.632 L97.416,13.632 L97.416,17 L96.632,17 L96.632,16.648 C96.3706654,16.9520015 96.0346687,17.104 95.624,17.104 C95.1279975,17.104 94.7320015,16.9280018 94.436,16.576 C94.1399985,16.2239982 93.992,15.8026691 93.992,15.312 C93.992,14.778664 94.1506651,14.3506683 94.468,14.028 C94.7853349,13.7053317 95.173331,13.544 95.632,13.544 C96.0533354,13.544 96.3866654,13.7039984 96.632,14.024 Z M95.728,14.248 C95.4506653,14.248 95.2253342,14.351999 95.052,14.56 C94.8786658,14.768001 94.792,15.0239985 94.792,15.328 C94.792,15.6266682 94.8786658,15.879999 95.052,16.088 C95.2253342,16.296001 95.4506653,16.4 95.728,16.4 C95.994668,16.4 96.2199991,16.3066676 96.404,16.12 C96.5880009,15.9333324 96.68,15.6720017 96.68,15.336 C96.68,14.9893316 96.5880009,14.7213343 96.404,14.532 C96.2199991,14.3426657 95.994668,14.248 95.728,14.248 Z" id="Загрузитена" fill="#325699" fill-rule="nonzero"></path>
                    </g>
                </g>
            </g>
        </g>
    </g>
</svg>