<?xml version="1.0" encoding="UTF-8"?>
<svg width="95px" height="89px" viewBox="0 0 95 89" version="1.1" xmlns="http://www.w3.org/2000/svg" xmlns:xlink="http://www.w3.org/1999/xlink">
    <!-- Generator: Sketch 53.2 (72643) - https://sketchapp.com -->
    <title>Group 8</title>
    <desc>Created with Sketch.</desc>
    <defs>
        <polygon id="path-1" points="0.0566402041 2.16759197 2.41409912 0.315013292 4.69841269 0.0542201351 6.22519094 5.31238596 12.8556915 12.3426449 8.5115152 17.5904666 7.2304973 17.8162608 7.19179986 15.5194766 2.18511827 7.66396607"></polygon>
        <polygon id="path-3" points="0.0356505102 2.241135 2.39349445 0.370445 4.67786506 0.10751 6.20458628 5.41652 12.8347018 12.51536 8.49053026 17.81433 2.1645136 7.791025"></polygon>
        <path d="M0.056635,16.6356573 L5.53675,14.0754041 L35.53385,0.16932814 L45.6964,21.2919766 C27.805265,19.4123807 15.50422,22.3822347 8.728045,24.8848442 C5.860805,24.489557 2.187095,21.2298345 0.056635,16.6356573 Z" id="path-5"></path>
        <path d="M7.38620977,0.069504 L7.44574244,0.140230184 C9.55258118,4.86886171 12.9581166,8.22807464 15.7085911,8.63886227 C12.9684624,9.73475637 11.1753021,10.7488845 10.329331,11.2704743 C10.1410538,11.4189442 9.95083421,11.5440039 9.76055222,11.639147 C7.02438525,13.0034202 2.57897548,9.32082681 0.0784882353,3.70895533 L5.0499362,1.25550707 L7.38620977,0.069504 Z" id="path-7"></path>
        <path d="M9.90200967,12.2481404 L7.4269025,13.3910551 L1.98886183,15.9014133 C-0.704196,10.3043951 -0.489955,4.4256475 2.45786083,3.06484007 C2.66288967,2.97032134 2.89145783,2.89543302 3.13746867,2.83593618 C4.12675617,2.47875325 6.15247183,1.66290464 8.8922415,0.128703525 C7.328648,2.62802523 7.63252033,7.53172601 9.90200967,12.2481404 Z" id="path-9"></path>
        <path d="M1.08546557,26.1075299 C7.26119516,22.548361 17.254921,15.0335403 26.9789634,0.161031169 L36.9085103,21.395974 L7.47865554,35.3783158 L2.04507722,37.9596312 C-0.111683576,33.3472553 -0.400069366,28.5516701 1.08546557,26.1075299 Z" id="path-11"></path>
        <path d="M27.2302438,16.5209893 C32.7825107,28.2234284 32.0300948,40.1699412 25.5491773,43.2040533 C19.0688066,46.2388992 9.31361514,39.2121618 3.76095551,27.5097473 C-1.79169915,15.8073575 -1.03928832,3.86082003 5.44199212,0.82665372 C11.9228202,-2.20785729 21.6775792,4.81855018 27.2302438,16.5209893 Z" id="path-13"></path>
        <path d="M23.4776,41.1519036 C17.90575,43.8175019 8.89737,36.8068973 3.806065,25.8438651 C-1.2853,14.8804482 -0.879365,3.36673012 4.692095,0.70119759 C10.264,-1.96398072 19.27235,5.0462241 24.36365,16.0092361 C29.45495,26.9722482 29.04945,38.4863053 23.4776,41.1519036 Z" id="path-15"></path>
        <path d="M23.4776,41.1519036 C17.90575,43.8175019 8.89737,36.8068973 3.806065,25.8438651 C-1.2853,14.8804482 -0.879365,3.36673012 4.692095,0.70119759 C10.264,-1.96398072 19.27235,5.0462241 24.36365,16.0092361 C29.45495,26.9722482 29.04945,38.4863053 23.4776,41.1519036 Z" id="path-17"></path>
        <path d="M2.98346667,0.691674576 C7.02074872,-1.13768475 13.5490256,3.67341525 17.2382051,11.1976864 C20.9277949,18.7214661 20.6337949,26.6235729 16.5960513,28.4525832 C15.3114359,29.034741 13.7742564,28.9421376 12.1569744,28.3062168 C9.06636923,25.594181 6.12232308,21.7634678 3.90381538,17.2389271 C1.68530769,12.7143864 0.484830769,8.0939 0.275558974,4.07617119 C0.794635897,2.47237288 1.69885128,1.27383729 2.98346667,0.691674576 Z" id="path-19"></path>
        <path d="M7.67995,0.149996928 C8.4279,-0.197284178 9.6373,0.716804916 10.32085,2.14623656 C11.00445,3.57606144 10.94985,5.07760369 10.2019,5.42488479 C10.1501,5.44901997 10.0919,5.4683871 10.0294,5.48347773 C9.7781,5.57470968 9.2644,5.78302919 8.5691,6.17513978 C7.40646,6.83052535 5.736645,8.00312135 3.94319,9.99695238 C3.176805,8.76959754 2.458805,7.46850998 1.80609,6.10307834 C1.15337,4.7376467 0.59272,3.36351459 0.11991,1.99990169 C2.821175,1.90493395 4.801475,1.38133333 6.05406,0.914261137 C6.803145,0.635059908 7.2933,0.376700461 7.52435,0.243784946 C7.5763,0.206328725 7.62815,0.174132104 7.67995,0.149996928 Z" id="path-21"></path>
        <path d="M0.486814286,3.44555556 C-0.100101429,1.90792778 -0.143447143,0.409355556 0.390085714,0.0988638889 C0.923871429,-0.21205 1.83227143,0.782916667 2.4192,2.32054444 C3.00582857,3.85864722 3.0492,5.35727222 2.51567143,5.66771111 C1.98214286,5.97820278 1.07382857,4.98360556 0.486814286,3.44555556 Z" id="path-23"></path>
        <polygon id="path-25" points="0.724106042 15.1066094 13.2184952 8.79416494 7.81942339 5.5102914 25.724106 0.106609433 13.886743 5.85560331 20.086229 9.70885584"></polygon>
        <polygon id="path-27" points="0.59326674 19.75 16.0863093 11.754237 9.39146025 7.59466383 31.5932667 0.75 16.9149365 8.03205891 24.6022992 12.9128455"></polygon>
    </defs>
    <g id="2nd" stroke="none" stroke-width="1" fill="none" fill-rule="evenodd">
        <g id="ver2-2" transform="translate(-169.000000, -521.000000)">
            <g id="1-экран" transform="translate(0.000000, -1.000000)">
                <g id="1" transform="translate(122.000000, 521.000000)">
                    <g id="Group-8" transform="translate(38.507723, 0.000000)">
                        <g id="Group-5" transform="translate(37.500000, 55.733118) rotate(-13.000000) translate(-37.500000, -55.733118) translate(7.000000, 22.233118)">
                            <g id="Group-174" transform="translate(13.923998, 48.105276)">
                                <mask id="mask-2" fill="white">
                                    <use xlink:href="#path-1"></use>
                                </mask>
                                <g id="Clip-173"></g>
                                <polygon id="Fill-172" fill="#FFA717" mask="url(#mask-2)" points="-2.82713432 -1.41784723 13.0850051 -3.74746144 16.1552318 19.0098375 0.243087619 21.3394517"></polygon>
                            </g>
                            <g id="Group-177" transform="translate(12.949628, 47.880325)">
                                <mask id="mask-4" fill="white">
                                    <use xlink:href="#path-3"></use>
                                </mask>
                                <g id="Clip-176"></g>
                                <polygon id="Fill-175" fill="#FFBA2F" mask="url(#mask-4)" points="-2.84812401 -1.37925 13.0640201 -3.73157 16.1291845 19.209665 0.217040306 21.561985"></polygon>
                            </g>
                            <g id="Group-180" transform="translate(10.243074, 22.420343)">
                                <mask id="mask-6" fill="white">
                                    <use xlink:href="#path-5"></use>
                                </mask>
                                <g id="Clip-179"></g>
                                <polygon id="Fill-178" fill="#EFEFEF" mask="url(#mask-6)" points="-4.41044 3.17736125 44.6376 -3.53466407 48.52 23.3637731 -0.528045 30.0757984"></polygon>
                            </g>
                            <g id="Group-183" transform="translate(2.268931, 39.524057)">
                                <mask id="mask-8" fill="white">
                                    <use xlink:href="#path-7"></use>
                                </mask>
                                <g id="Clip-182"></g>
                                <polygon id="Fill-181" fill="#FDAD29" mask="url(#mask-8)" points="-2.96408588 -0.950660108 16.4688749 -3.83158716 18.7113553 12.999666 -0.72160552 15.8805931"></polygon>
                            </g>
                            <g id="Group-186" transform="translate(0.472900, 27.180069)">
                                <mask id="mask-10" fill="white">
                                    <use xlink:href="#path-9"></use>
                                </mask>
                                <g id="Clip-185"></g>
                                <polygon id="Fill-184" fill="#FFC248" mask="url(#mask-10)" points="-3.93977967 -0.657825603 11.090901 -2.72108942 13.9018415 16.8141222 -1.12884433 18.8773658"></polygon>
                            </g>
                            <g id="Group-189" transform="translate(8.298446, 1.603682)">
                                <mask id="mask-12" fill="white">
                                    <use xlink:href="#path-11"></use>
                                </mask>
                                <g id="Clip-188"></g>
                                <polygon id="Fill-187" fill="#FFFFFF" mask="url(#mask-12)" points="-6.34542027 2.37657922 35.8939505 -3.59006234 41.2772599 34.9095784 -0.96209612 40.8762003"></polygon>
                            </g>
                            <g id="Group-192" transform="translate(29.287010, 0.704061)">
                                <mask id="mask-14" fill="white">
                                    <use xlink:href="#path-13"></use>
                                </mask>
                                <g id="Clip-191"></g>
                                <polygon id="Fill-190" fill="#FDAD29" mask="url(#mask-14)" points="-4.58730046 -0.594799227 28.5085304 -5.20208741 35.5782561 44.6256343 2.48243526 49.2329274"></polygon>
                            </g>
                            <g id="Group-195" transform="translate(31.274195, 1.816536)">
                                <mask id="mask-16" fill="white">
                                    <use xlink:href="#path-15"></use>
                                </mask>
                                <g id="Clip-194"></g>
                                <polygon id="Fill-193" fill="#EFEFEF" mask="url(#mask-16)" points="-4.197735 -0.853662651 25.7273 -5.11003373 32.36755 42.7068549 2.44249 46.963221"></polygon>
                            </g>
                            <g id="Group-198" transform="translate(31.274195, 1.816536)">
                                <mask id="mask-18" fill="white">
                                    <use xlink:href="#path-17"></use>
                                </mask>
                                <g id="Clip-197"></g>
                                <polygon id="Fill-196" fill="#FFFFFF" mask="url(#mask-18)" points="-4.197735 -0.853662651 25.7273 -5.11003373 32.36755 42.7068549 2.44249 46.963221"></polygon>
                            </g>
                            <g id="Group-201" transform="translate(31.563756, 11.051978)">
                                <mask id="mask-20" fill="white">
                                    <use xlink:href="#path-19"></use>
                                </mask>
                                <g id="Clip-200"></g>
                                <polygon id="Fill-199" fill="#EFEFEF" mask="url(#mask-20)" points="-3.19712821 -1.13901186 18.8668205 -4.1111678 23.8880513 30.1331037 1.82409744 33.1052253"></polygon>
                            </g>
                            <g id="Group-204" transform="translate(33.290404, 21.451156)">
                                <mask id="mask-22" fill="white">
                                    <use xlink:href="#path-21"></use>
                                </mask>
                                <g id="Clip-203"></g>
                                <polygon id="Fill-202" fill="#FFFFFF" mask="url(#mask-22)" points="-2.821415 -0.915391705 12.34605 -3.01102304 14.35475 11.0403146 -0.81269 13.1359459"></polygon>
                            </g>
                            <g id="Group-207" transform="translate(41.637787, 22.402220)">
                                <mask id="mask-24" fill="white">
                                    <use xlink:href="#path-23"></use>
                                </mask>
                                <g id="Clip-206"></g>
                                <polygon id="Fill-205" fill="#FDAD29" mask="url(#mask-24)" points="-2.54936571 -2.08381389 4.18838571 -3.24993889 5.45515714 7.85028333 -1.28256857 9.01640833"></polygon>
                            </g>
                        </g>
                        <g id="Group-220" transform="translate(88.647138, 38.793017) rotate(20.000000) translate(-88.647138, -38.793017) translate(75.647138, 30.793017)">
                            <mask id="mask-26" fill="white">
                                <use xlink:href="#path-25"></use>
                            </mask>
                            <g id="Clip-219"></g>
                            <polygon id="Fill-218" fill="#FFCB49" mask="url(#mask-26)" points="-5.27589396 0.794276158 29.0737333 -3.89339057 31.724106 14.4189427 -2.62552126 19.1066094"></polygon>
                        </g>
                        <g id="Group-220" transform="translate(82.492277, 13.000000) rotate(-9.000000) translate(-82.492277, -13.000000) translate(66.492277, 3.000000)">
                            <mask id="mask-28" fill="white">
                                <use xlink:href="#path-27"></use>
                            </mask>
                            <g id="Clip-219"></g>
                            <polygon id="Fill-218" fill="#FFCB49" mask="url(#mask-28)" points="-6.40673326 1.66053631 35.3698405 -4.25 38.5932667 18.8394637 -3.183307 24.75"></polygon>
                        </g>
                    </g>
                </g>
            </g>
        </g>
    </g>
</svg>