<?xml version="1.0" encoding="UTF-8"?>
<svg width="54px" height="56px" viewBox="0 0 54 56" version="1.1" xmlns="http://www.w3.org/2000/svg" xmlns:xlink="http://www.w3.org/1999/xlink">
    <!-- Generator: Sketch 53.2 (72643) - https://sketchapp.com -->
    <title>icostata/attent</title>
    <desc>Created with Sketch.</desc>
    <defs>
        <path d="M38.3096357,55.1822096 L5.51154893,38.5064248 C2.2091126,36.8275282 0.339189103,34.3458175 0.244050138,31.5188624 C0.149768281,28.6901968 1.84627031,25.9527601 5.01985476,23.8097366 L36.5479935,2.51919569 C39.7210066,0.375316905 42.8145943,-0.120740154 45.2570658,1.12111304 C47.6995373,2.36296622 49.1160508,5.15200428 49.242617,8.97363926 L50.5128508,46.939965 C50.6411313,50.7616 49.4186098,53.740223 47.0698488,55.3267504 C44.7225162,56.9118522 41.6115007,56.8611062 38.3096357,55.1822096 Z M30.5816662,38.1181318 C31.489629,36.3400239 30.8436555,34.1952898 29.1388681,33.3286154 C27.4343664,32.461941 25.3158816,33.200895 24.4079187,34.979288 C23.4999559,36.757396 24.1459295,38.9021301 25.8504312,39.7688045 C27.5552186,40.6354789 29.6737033,39.8962398 30.5816662,38.1181318 Z M40.5598294,18.7821698 C41.492077,16.9564517 40.8289612,14.7541295 39.0784614,13.8643627 C37.3282473,12.9743109 35.1529077,13.7332212 34.2206602,15.5592244 L28.9771604,27.6741351 L28.9874457,27.6792667 C28.4343254,29.0305946 28.9445903,30.5752136 30.2153954,31.2215133 C31.3907759,31.8190625 32.8155748,31.44816 33.6326842,30.4075806 C33.6986815,30.3231939 33.7512508,30.2242675 33.8089627,30.1313281 L33.8303904,30.1424466 L40.5598294,18.7821698 Z" id="path-1"></path>
    </defs>
    <g id="2nd" stroke="none" stroke-width="1" fill="none" fill-rule="evenodd">
        <g id="ver7_f" transform="translate(-186.000000, -3520.000000)">
            <g id="icostata/attent" transform="translate(205.660753, 3554.173198) rotate(-40.000000) translate(-205.660753, -3554.173198) translate(180.160753, 3525.799959)">
                <mask id="mask-2" fill="white">
                    <use xlink:href="#path-1"></use>
                </mask>
                <g id="Clip-243"></g>
                <polygon id="Fill-242" fill="#FF6A67" mask="url(#mask-2)" points="14.0693359 -29.5973891 86.7689641 7.62152097 51.0038036 78.1490898 -21.6958246 40.929897"></polygon>
            </g>
        </g>
    </g>
</svg>