<?xml version="1.0" encoding="UTF-8"?>
<svg width="54px" height="55px" viewBox="0 0 54 55" version="1.1" xmlns="http://www.w3.org/2000/svg" xmlns:xlink="http://www.w3.org/1999/xlink">
    <!-- Generator: Sketch 53.2 (72643) - https://sketchapp.com -->
    <title>icostata/done</title>
    <desc>Created with Sketch.</desc>
    <defs>
        <path d="M23.5462229,45.7807127 C32.9809399,47.3857236 41.9084419,40.9906509 43.7579128,31.6955164 C45.678905,22.0411673 39.4253624,12.8246109 29.8241531,11.1259018 C20.389436,9.52089091 11.2715233,15.94208 9.52921705,25.3199164 C7.72711434,34.9974036 13.9926163,44.1537091 23.5462229,45.7807127 Z M52.1449012,33.5992618 C53.0123023,35.44436 52.4645194,37.2695273 50.6553818,38.2951673 C49.8222171,38.7593055 48.9773275,39.2834655 48.1554186,39.6873527 C47.131843,40.1776073 46.6673062,40.96064 46.6912248,42.0854764 C46.6668372,43.1388364 46.6417461,44.1919673 46.498938,45.2235636 C46.3075891,47.1158545 44.9386008,48.4118218 43.022064,48.4219018 C42.0941628,48.4322109 41.1540678,48.5020836 40.2259322,48.51308 C39.179376,48.5011673 38.4177326,48.9160509 37.9175523,49.87892 C37.4290969,50.7826836 36.881314,51.6736182 36.4050523,52.5166727 C35.4640194,54.1434473 33.6909942,54.6774582 31.9899593,53.9187091 C31.0261802,53.48756 30.134157,53.0069273 29.2414302,52.5260655 C28.349876,52.0456618 27.4805988,52.0667382 26.6122597,52.7109418 C25.7554109,53.2948945 24.9102868,53.8190545 24.0649283,54.3436727 C22.3749147,55.3919927 20.5901647,55.0529382 19.4249535,53.4625891 C18.8426996,52.6667273 18.212374,51.8009927 17.6298857,51.0051309 C17.1067248,50.2218691 16.3811938,49.8344764 15.369812,49.9536036 C14.2988682,50.0612764 13.2872519,50.1804036 12.2282674,50.2289709 C10.28875,50.3579491 8.8733314,49.0940545 8.63649031,47.1818327 C8.53002907,46.1653564 8.35204651,45.1981345 8.24558527,44.1825745 C8.13912403,43.1660982 7.65160659,42.5141055 6.73543023,42.1532873 C5.81972287,41.7920109 4.91550581,41.3720873 3.99956395,41.0114982 C2.28656977,40.3120836 1.51413953,38.60948 2.05043217,36.8443345 C2.37239535,35.84756 2.75345155,34.8624691 3.08737403,33.8052145 C3.46866473,32.8201236 3.3978469,31.9349164 2.6962345,31.1170618 C2.04222481,30.3704545 1.45950194,29.57528 0.81745155,28.7693382 C-0.359484496,27.2383236 -0.227697674,25.33412 1.1652093,23.9183382 C1.92708721,23.1916618 2.67724031,22.5250073 3.42715891,21.8583527 C4.1057907,21.2404945 4.37968217,20.4835782 4.20193411,19.5161273 C3.97611434,18.4781164 3.82228488,17.3903927 3.59669961,16.3516945 C3.2644186,14.609 4.20545155,12.9822255 5.87154651,12.3650545 C6.9307655,12.0060691 7.96606589,11.7678145 9.0728876,11.4793891 C10.0483915,11.22968 10.6557364,10.6597018 10.9061783,9.71149455 C11.227907,8.71472 11.4783488,7.7672 11.74075,6.75828364 C12.2177151,4.98191273 13.919688,3.87425818 15.7042035,4.21331273 L17.3698295,4.52945818 C17.2270213,4.62636364 17.3817888,4.46897818 17.3698295,4.52945818 C17.8460911,4.69600727 18.155157,4.92693091 18.6905116,5.02864727 C19.7016589,5.22062545 20.4872209,4.99634545 21.1895368,4.25844364 C21.8918527,3.52122909 22.5944031,2.78264 23.2849942,2.10476 C24.749188,0.640869091 26.6174186,0.559541818 28.1395329,1.90705455 C28.9365853,2.55561091 29.7214438,3.26487636 30.5180271,3.91457818 C31.1485872,4.46943636 31.8743527,4.54503636 32.7192422,4.33266909 C33.7069399,4.02179273 34.6465659,3.64012727 35.6342636,3.33039636 C37.6218527,2.64930909 39.2637946,3.39729091 40.0601434,5.29049818 C40.4285368,6.23160364 40.808655,7.11360364 41.1765795,8.05402182 C41.5454419,8.99535636 42.1155019,9.53990545 43.1395465,9.67140364 C44.1626531,9.80358909 45.1740349,9.99556727 46.1971415,10.1277527 C48.1000775,10.4890291 49.2537984,12.1400873 48.9911628,14.0811745 C48.8596105,15.0518327 48.7756609,16.0946545 48.643874,17.0646255 C48.5725872,18.0469673 48.8577345,18.7855564 49.6784709,19.3149855 C50.4872481,19.9042073 51.2960252,20.4934291 52.092843,21.1424436 C53.638876,22.3696836 53.8876764,24.2223418 52.8279884,25.8252909 C52.2792674,26.7173709 51.6728605,27.5973091 51.0655155,28.4777055 C50.5409477,29.2495127 50.5172636,29.9917673 50.8493101,30.8022909 C51.2892248,31.6941418 51.7169457,32.6467018 52.1449012,33.5992618 Z" id="path-1"></path>
        <path d="M27.0660023,11.3945143 C27.4884206,10.8525714 27.5129051,10.4224 27.1156846,9.9136 C26.8137874,9.54674286 26.5123657,9.17988571 26.1386789,8.86171429 C25.7288594,8.41257143 25.2945554,8.39337143 24.8488411,8.74468571 C24.1844297,9.2416 23.4484663,9.78697143 22.77312,10.3437714 C19.623168,12.6112 16.654592,14.9126857 13.6016274,17.3225143 C12.5169371,15.8779429 11.4809783,14.5046857 10.371328,13.1796571 C9.17800229,11.6525714 8.86445714,11.656 7.27177143,12.7243429 C6.47542857,13.2585143 6.25792,13.7147429 6.64349257,14.5940571 C7.10109257,15.7350857 7.69157486,16.8388571 8.28253257,17.9428571 C9.36650971,20.0082286 10.3784594,22.1222857 11.462912,24.1878857 C11.8242377,24.8763429 12.4881737,25.0004571 13.0910171,24.4921143 C13.2486217,24.3353143 13.3926766,24.2379429 13.549568,24.0811429 C17.8707383,20.0454857 22.1904823,16.0096 26.5114149,11.9739429 C26.6678309,11.8169143 26.8977006,11.6114286 27.0660023,11.3945143 Z M19.3041554,0.878171429 C27.6139337,2.49325714 32.9653577,10.3860571 31.3681554,18.5940571 C29.6632686,27.3405714 21.493504,32.7686857 12.7256503,30.9435429 C4.54851657,29.2909714 -0.718043429,21.2902857 1.011328,13.0445714 C2.69268114,4.72777143 10.8617326,-0.699885714 19.3041554,0.878171429 Z" id="path-3"></path>
    </defs>
    <g id="2nd" stroke="none" stroke-width="1" fill="none" fill-rule="evenodd">
        <g id="ver7_f" transform="translate(-1232.000000, -3631.000000)">
            <g id="icostata/done" transform="translate(1232.000000, 3631.000000)">
                <g id="Group-268">
                    <mask id="mask-2" fill="white">
                        <use xlink:href="#path-1"></use>
                    </mask>
                    <g id="Clip-267"></g>
                    <polygon id="Fill-266" fill="#325699" mask="url(#mask-2)" points="-3.46069574 -16.3336218 71.9790523 -2.00765091 56.9968605 73.2931564 -18.4431221 58.9671855"></polygon>
                </g>
                <g id="Group-271" transform="translate(11.000000, 13.000000)">
                    <mask id="mask-4" fill="white">
                        <use xlink:href="#path-3"></use>
                    </mask>
                    <g id="Clip-270"></g>
                    <polygon id="Fill-269" fill="#325699" mask="url(#mask-4)" points="-5.35252114 -15.3728 48.31552 -5.34194286 37.6827977 47.2544 -15.9850057 37.2235429"></polygon>
                </g>
            </g>
        </g>
    </g>
</svg>