<?xml version="1.0" encoding="UTF-8"?>
<svg width="640px" height="640px" viewBox="0 0 640 640" version="1.1" xmlns="http://www.w3.org/2000/svg" xmlns:xlink="http://www.w3.org/1999/xlink">
    <!-- Generator: Sketch 53.2 (72643) - https://sketchapp.com -->
    <title>double-arrow-down</title>
    <desc>Created with Sketch.</desc>
    <g id="double-arrow-down" stroke="none" stroke-width="1" fill="none" fill-rule="evenodd">
        <g id="double-right-arrows-angles" transform="translate(0.000000, 120.000000)" fill="#9C9DA0" fill-rule="nonzero">
            <path d="M350.37075,199.562284 C350.95575,192.041284 348.66975,184.359284 342.90175,178.618284 L165.75675,-58.1287161 C155.28475,-68.5737161 138.32675,-68.5737161 127.85475,-58.1287161 C117.38175,-47.6827161 117.38175,-30.7507161 127.85475,-20.2787161 L288.06875,199.562284 L127.85475,419.404284 C117.38175,429.849284 117.38175,446.781284 127.85475,457.227284 C138.32775,467.672284 155.28575,467.672284 165.75675,457.227284 L342.90275,220.480284 C348.66975,214.739284 350.92975,207.085284 350.37075,199.562284 Z M511.52,179.08575 L280.765466,-111.16625 C270.292466,-121.61125 253.334466,-121.61125 242.862466,-111.16625 C232.389466,-100.72025 232.389466,-83.76225 242.862466,-73.34325 L456.69,200.02975 L242.861466,473.37675 C232.388466,483.82275 232.388466,500.75375 242.861466,511.22675 C253.334466,521.67275 270.292466,521.67275 280.764466,511.22675 L511.49,220.97575 C517.258,215.23475 519.525,207.55275 518.94,200.03075 C519.553,192.50875 517.261,184.82675 511.52,179.08575 Z" id="Shape" transform="translate(319.518192, 200.030625) rotate(90.000000) translate(-319.518192, -200.030625) "></path>
        </g>
    </g>
</svg>