<?xml version="1.0" encoding="UTF-8"?>
<svg width="153px" height="152px" viewBox="0 0 153 152" version="1.1" xmlns="http://www.w3.org/2000/svg" xmlns:xlink="http://www.w3.org/1999/xlink">
    <!-- Generator: Sketch 53.2 (72643) - https://sketchapp.com -->
    <title>icostata/loading</title>
    <desc>Created with Sketch.</desc>
    <defs>
        <filter x="-29.5%" y="-29.7%" width="159.0%" height="159.3%" filterUnits="objectBoundingBox" id="filter-1">
            <feGaussianBlur stdDeviation="10" in="SourceGraphic"></feGaussianBlur>
        </filter>
        <path d="M58.5198034,7.47940893 L59.0249741,7.4790324 C86.8579424,7.45828725 109.437839,30.0045489 109.458584,57.8375173 C109.458602,57.8625017 109.458602,57.8874861 109.458584,57.9124706 L109.458584,57.9124706 C109.437894,85.7989997 86.83661,108.40036 58.950081,108.421145 L58.4449104,108.421522 C30.611942,108.442267 8.0320458,85.8960054 8.01130065,58.063037 C8.01128203,58.0380526 8.01128199,58.0130682 8.01130052,57.9880838 L8.01130052,57.9880838 C8.03199067,30.1015547 30.6332744,7.500194 58.5198034,7.47940893 Z" id="path-2"></path>
        <path d="M27.5300723,4.14641604 L27.5300723,5.20825047 C27.5300723,11.8753631 25.4098987,17.9880953 21.9190045,21.615333 C25.4098987,25.2433405 27.5300723,31.3565407 27.5300723,38.0228853 L27.5300723,39.3607646 L29.1065737,39.3607646 L29.1065737,43.4525169 L0.563343925,43.4525169 L0.563343925,39.3607646 L2.14003157,39.3607646 L2.14003157,38.0228853 C2.14003157,31.3565407 4.25984347,25.2432443 7.75119526,21.615333 C4.25984347,17.9880953 2.14003157,11.8743064 2.14003157,5.20825047 L2.14003157,4.14641604 L0.563343925,4.14641604 L0.563343925,0.0545750511 L29.1065737,0.0545750511 L29.1065737,4.14641604 L27.5300723,4.14641604 Z M19.2597889,20.5479512 C22.5267063,17.8813741 24.7195553,12.4835947 25.0083032,6.5476619 L4.66152393,6.5476619 C4.95089947,12.4835947 7.14321126,17.8813741 10.4106677,20.5479512 L11.719124,21.615333 L10.4106677,22.6827148 C7.14267948,25.3495712 4.95089947,30.7481261 4.66152393,36.6834777 L25.0091172,36.6834777 C24.7195553,30.7475525 22.5267968,25.3489975 19.2597889,22.6827148 L17.9506218,21.615333 L19.2597889,20.5479512 Z M7.28465685,8.67610453 L22.3851721,8.67610453 C22.1668748,13.1831317 20.5014375,17.2825202 18.0189453,19.3071285 C18.0189453,19.3071285 17.5938995,19.5046646 17.0262523,20.1170096 C15.8518655,21.9218734 15.7892287,28.5191908 15.7872734,28.8100589 C16.6304376,28.9069193 17.5413898,29.2898665 18.4441702,30.1772903 C21.6293522,33.3092367 22.5535481,33.6786079 22.6646954,35.9521959 L7.72978335,35.9521959 C7.84084204,33.6791815 9.65297572,32.0524437 11.9500391,30.1772903 C11.9500391,30.1772903 13.0428642,29.1451023 14.5756609,28.8587268 C14.5477628,28.806904 14.5314154,28.7719064 14.5314154,28.7719064 C14.5314154,22.5577287 12.6435839,19.8931706 12.6435839,19.8931706 L11.3017201,19.0832895 C8.82003098,17.0573415 7.50366682,13.1832261 7.28465685,8.67610453 Z" id="path-4"></path>
    </defs>
    <g id="2nd" stroke="none" stroke-width="1" fill="none" fill-rule="evenodd">
        <g id="ver7_f" transform="translate(-117.000000, -3645.000000)">
            <g id="icostata/loading" transform="translate(193.628692, 3720.535652) rotate(-12.000000) translate(-193.628692, -3720.535652) translate(134.628692, 3662.035652)">
                <g id="Group-10" transform="translate(0.042280, 0.829925)">
                    <path d="M58.5198034,7.47940893 L59.0249741,7.4790324 C86.8579424,7.45828725 109.437839,30.0045489 109.458584,57.8375173 C109.458602,57.8625017 109.458602,57.8874861 109.458584,57.9124706 L109.458584,57.9124706 C109.437894,85.7989997 86.83661,108.40036 58.950081,108.421145 L58.4449104,108.421522 C30.611942,108.442267 8.0320458,85.8960054 8.01130065,58.063037 C8.01128203,58.0380526 8.01128199,58.0130682 8.01130052,57.9880838 L8.01130052,57.9880838 C8.03199067,30.1015547 30.6332744,7.500194 58.5198034,7.47940893 Z" id="Rectangle-Copy-16" fill="#325699" opacity="0.2" filter="url(#filter-1)" transform="translate(58.734942, 57.950277) rotate(-9.000000) translate(-58.734942, -57.950277) "></path>
                    <path d="M58.5235301,12.4794075 C33.3955205,12.4981366 13.0299426,32.8637837 13.0112991,57.9917935 C13.0112825,58.0255519 13.0112825,58.0255519 13.0112993,58.0593103 C13.0299862,83.1308557 33.3696383,103.44021 58.4411836,103.421523 L58.9463543,103.421147 C84.074364,103.402418 104.439942,83.0367706 104.458585,57.9087609 C104.458602,57.8750024 104.458602,57.8750024 104.458585,57.841244 C104.439898,32.7696986 84.1002462,12.4603441 59.0287008,12.479031 L58.5235301,12.4794075 Z" id="Rectangle-Copy-16" stroke="#FFFFFF" stroke-width="10" fill="#10BAEA" transform="translate(58.734942, 57.950277) rotate(-9.000000) translate(-58.734942, -57.950277) "></path>
                    <g id="Path-5" transform="translate(0.000000, -0.000000)">
                        <mask id="mask-3" fill="white">
                            <use xlink:href="#path-2"></use>
                        </mask>
                        <g id="Mask" transform="translate(58.734942, 57.950277) rotate(-9.000000) translate(-58.734942, -57.950277) "></g>
                        <polygon fill="#0FBCE8" mask="url(#mask-3)" points="60.2165861 3.105716 60.2165861 58.4522106 37.1827689 107.074365 -8.37300277 80.1770029 -8.37300277 26.8995361 20.291303 -3.1013675"></polygon>
                    </g>
                </g>
                <g id="shape" transform="translate(44.042280, 36.829925)">
                    <mask id="mask-5" fill="white">
                        <use xlink:href="#path-4"></use>
                    </mask>
                    <g id="Clip-2"></g>
                    <polygon id="Fill-1" fill="#F7F8F9" mask="url(#mask-5)" points="-8.08785893 52.9759445 38.8391459 52.9759445 38.8391459 -9.43907307 -8.08785893 -9.43907307"></polygon>
                </g>
            </g>
        </g>
    </g>
</svg>