<?xml version="1.0" encoding="UTF-8"?>
<svg width="152px" height="154px" viewBox="0 0 152 154" version="1.1" xmlns="http://www.w3.org/2000/svg" xmlns:xlink="http://www.w3.org/1999/xlink">
    <!-- Generator: Sketch 53.2 (72643) - https://sketchapp.com -->
    <title>icon/megafon</title>
    <desc>Created with Sketch.</desc>
    <defs>
        <polygon id="path-1" points="4.24614566 40.6140794 30.9321413 27.0466708 19.3115334 19.812319 57.6070008 8.30492731 32.3208769 20.6545164 45.6654667 29.1411957"></polygon>
        <polygon id="path-3" points="3.40894386 29.8383482 22.8812393 19.9768389 14.4420883 14.7975989 42.3612533 6.38551427 23.9119674 15.364893 33.6025658 21.4415831"></polygon>
        <polygon id="path-5" points="0.619058441 4.13284806 5.27668323 0.620909176 9.78979498 0.126522817 12.8062464 10.0944433 25.9061072 23.4217261 17.3233307 33.3700371 14.7924273 33.798076 14.7159729 29.4440554 4.82428642 14.5523407"></polygon>
        <polygon id="path-7" points="0.577589163 4.2722638 5.23597465 0.72599123 9.74919909 0.227544572 12.7655378 10.2918506 25.864638 23.7491426 17.2818708 33.7944157 4.78357784 14.7932067"></polygon>
        <path d="M0.619104923,31.8822631 L11.4516449,26.9414969 L70.7468943,0.105608341 L90.8352007,40.8680092 C55.469805,37.2407727 31.1543368,42.9719847 17.7598758,47.8015104 C12.0922042,47.0386867 4.83038391,40.7480875 0.619104923,31.8822631 Z" id="path-9"></path>
        <path d="M15.0880976,0.162745546 L15.2056196,0.304197914 C19.3646804,9.76146096 26.0874677,16.4798868 31.5171149,17.3014621 C26.1078911,19.4932503 22.5680556,21.5215066 20.8980439,22.5646862 C20.5263705,22.8616259 20.1508623,23.1117453 19.7752311,23.3020316 C14.3738283,26.0305778 5.59824939,18.6653912 0.662096332,7.44164821 L10.4761148,2.53475169 L15.0880976,0.162745546 Z" id="path-11"></path>
        <path d="M20.0939685,23.7412753 L15.1980469,25.9776233 L4.44125157,30.8896559 C-0.885790567,19.9379375 -0.462008047,8.43495745 5.36896185,5.77225756 C5.77452211,5.58731219 6.22664469,5.44077779 6.71326999,5.32435996 C8.67014449,4.62545802 12.6771408,3.02908225 18.0965819,0.0271019027 C15.0036931,4.91753939 15.6047722,14.5126395 20.0939685,23.7412753 Z" id="path-13"></path>
        <path d="M2.37992875,50.3834784 C14.4487299,43.4844873 33.9787771,28.9179737 52.9818005,0.0895275536 L72.3864271,41.2507333 L14.8736977,68.3537047 L4.25523141,73.3572525 C0.0404229806,64.4167551 -0.523149419,55.1211299 2.37992875,50.3834784 Z" id="path-15"></path>
        <path d="M53.8738987,32.3589358 C64.7554174,55.2631749 63.2808077,78.6451197 50.5792883,84.5835424 C37.8788407,90.5234012 18.7602896,76.7705355 7.87800118,53.8663446 C-3.00427748,30.9622019 -1.52967751,7.58020884 11.1725531,1.64168012 C23.873897,-4.29752325 42.9916005,9.45469672 53.8738987,32.3589358 Z" id="path-17"></path>
        <path d="M46.6697831,79.3452138 C35.6544668,84.4991228 17.8452731,70.9441856 7.7799743,49.7472672 C-2.28544314,28.5496051 -1.48292648,6.28794099 9.53161886,1.13415925 C20.547044,-4.01893762 38.3561783,9.53522658 48.4214672,30.7321059 C58.4867562,51.9289852 57.6850995,74.1913049 46.6697831,79.3452138 Z" id="path-19"></path>
        <path d="M46.6697831,79.3452138 C35.6544668,84.4991228 17.8452731,70.9441856 7.7799743,49.7472672 C-2.28544314,28.5496051 -1.48292648,6.28794099 9.53161886,1.13415925 C20.547044,-4.01893762 38.3561783,9.53522658 48.4214672,30.7321059 C58.4867562,51.9289852 57.6850995,74.1913049 46.6697831,79.3452138 Z" id="path-21"></path>
        <path d="M5.81330124,0.867122775 C13.6641066,-2.6521667 26.3588429,6.60334335 33.532736,21.0784047 C40.7074269,35.5525204 40.1357213,50.7544553 32.2840185,54.2730734 C29.7859851,55.3930183 26.7968214,55.2148696 23.6518922,53.9914962 C17.6419729,48.7741292 11.9170488,41.4046701 7.60299007,32.7004378 C3.28893132,23.9962056 0.954511656,15.1073946 0.547566563,7.37815817 C1.55695154,4.29279903 3.31526787,1.98707722 5.81330124,0.867122775 Z" id="path-23"></path>
        <path d="M15.4760648,0.320202063 C16.9338863,-0.366188829 19.2911152,1.44048138 20.6234154,4.26571098 C21.955813,7.09171781 21.8493927,10.0594719 20.3915712,10.7458628 C20.2906083,10.7935653 20.1771713,10.8318438 20.0553532,10.86167 C19.565547,11.0419873 18.5642997,11.4537246 17.2090978,12.2287197 C14.9430083,13.52407 11.6883893,15.8416715 8.19278496,19.7824199 C6.69903197,17.3565892 5.29958567,14.7850279 4.02738569,12.0862924 C2.75517596,9.3875569 1.66241891,6.67162521 0.74086988,3.97648442 C6.00587725,3.78878347 9.86565928,2.75390225 12.3070596,1.83074779 C13.7670933,1.27891478 14.7224493,0.768274928 15.1727865,0.505571322 C15.2740417,0.431540203 15.375102,0.367904529 15.4760648,0.320202063 Z" id="path-25"></path>
        <path d="M1.42424985,6.79774481 C0.318576378,3.7747485 0.236918645,0.82853592 1.2420257,0.218105244 C2.24760911,-0.393155526 3.9589175,1.56296195 5.0646152,4.58595826 C6.16974773,7.60988843 6.25145391,10.5562048 5.24635492,11.1665317 C4.24125594,11.7769624 2.53010902,9.82157121 1.42424985,6.79774481 Z" id="path-27"></path>
    </defs>
    <g id="2nd" stroke="none" stroke-width="1" fill="none" fill-rule="evenodd">
        <g id="ver7_f" transform="translate(-1213.000000, -3473.000000)">
            <g id="icon/megafon" transform="translate(1200.249490, 3462.358037)">
                <g id="icostata/molniya2" transform="translate(134.167236, 72.937684) scale(-1, 1) translate(-134.167236, -72.937684) translate(103.167236, 48.437684)">
                    <mask id="mask-2" fill="white">
                        <use xlink:href="#path-1"></use>
                    </mask>
                    <g id="Clip-219" transform="translate(30.926573, 24.459503) rotate(20.000000) translate(-30.926573, -24.459503) "></g>
                    <polygon id="Fill-218" fill="#FFCB49" mask="url(#mask-2)" transform="translate(30.926573, 24.459503) rotate(20.000000) translate(-30.926573, -24.459503) " points="-8.8258345 9.34383099 64.7270743 -0.359989202 70.6789809 39.5751757 -2.87392785 49.2789959"></polygon>
                </g>
                <g id="icostata/molniya1" transform="translate(94.064496, 29.000000) scale(-1, 1) rotate(-40.000000) translate(-94.064496, -29.000000) translate(71.064496, 11.000000)">
                    <mask id="mask-4" fill="white">
                        <use xlink:href="#path-3"></use>
                    </mask>
                    <g id="Clip-219" transform="translate(22.885099, 18.111931) rotate(20.000000) translate(-22.885099, -18.111931) "></g>
                    <polygon id="Fill-218" fill="#FFCB49" mask="url(#mask-4)" transform="translate(22.885099, 18.111931) rotate(20.000000) translate(-22.885099, -18.111931) " points="-6.01347044 7.33759647 47.5720756 0.117747686 51.7836676 28.886266 -1.80187839 36.1061148"></polygon>
                </g>
                <g id="icostata/rupor" transform="translate(72.000000, 106.556351) scale(-1, 1) rotate(13.000000) translate(-72.000000, -106.556351) translate(13.000000, 42.556351)">
                    <g id="Group-174" transform="translate(25.945583, 93.205886)">
                        <mask id="mask-6" fill="white">
                            <use xlink:href="#path-5"></use>
                        </mask>
                        <g id="Clip-173"></g>
                        <polygon id="Fill-172" fill="#FFA717" mask="url(#mask-6)" points="-5.07840659 -2.66407965 26.3591614 -7.0803362 32.4249995 36.0607429 0.987422062 40.4769994"></polygon>
                    </g>
                    <g id="Group-177" transform="translate(24.251058, 92.147883)">
                        <mask id="mask-8" fill="white">
                            <use xlink:href="#path-7"></use>
                        </mask>
                        <g id="Clip-176"></g>
                        <polygon id="Fill-175" fill="#FFBA2F" mask="url(#mask-8)" points="-5.11987587 -2.59091076 26.3177016 -7.05021076 32.3735379 36.4395564 0.935960461 40.8988564"></polygon>
                    </g>
                    <g id="Group-180" transform="translate(18.225697, 42.760079)">
                        <mask id="mask-10" fill="white">
                            <use xlink:href="#path-9"></use>
                        </mask>
                        <g id="Clip-179"></g>
                        <polygon id="Fill-178" fill="#EFEFEF" mask="url(#mask-10)" points="-8.21095951 5.91049835 88.7422713 -7.04234071 96.4166091 44.8661536 -0.536631678 57.8189927"></polygon>
                    </g>
                    <g id="Group-183" transform="translate(3.472940, 75.874589)">
                        <mask id="mask-12" fill="white">
                            <use xlink:href="#path-11"></use>
                        </mask>
                        <g id="Clip-182"></g>
                        <polygon id="Fill-181" fill="#FDAD29" mask="url(#mask-12)" points="-5.34417768 -1.87758267 33.0179733 -7.63943677 37.444801 26.0230696 -0.917349935 31.7849237"></polygon>
                    </g>
                    <g id="Group-186" transform="translate(0.068053, 51.976401)">
                        <mask id="mask-14" fill="white">
                            <use xlink:href="#path-13"></use>
                        </mask>
                        <g id="Clip-185"></g>
                        <polygon id="Fill-184" fill="#FFC248" mask="url(#mask-14)" points="-7.28598381 -1.51190427 22.4456723 -5.54910473 28.0058939 32.6755587 -1.72577237 36.7127196"></polygon>
                    </g>
                    <g id="Group-189" transform="translate(14.539945, 2.596091)">
                        <mask id="mask-16" fill="white">
                            <use xlink:href="#path-15"></use>
                        </mask>
                        <g id="Clip-188"></g>
                        <polygon id="Fill-187" fill="#FFFFFF" mask="url(#mask-16)" points="-12.1417374 4.38408252 70.403743 -7.18148479 80.9239723 67.4451175 -1.62147943 79.0106466"></polygon>
                    </g>
                    <g id="Group-192" transform="translate(55.933722, 0.313719)">
                        <mask id="mask-18" fill="white">
                            <use xlink:href="#path-17"></use>
                        </mask>
                        <g id="Clip-191"></g>
                        <polygon id="Fill-190" fill="#FDAD29" mask="url(#mask-18)" points="-8.48319059 -1.14041495 56.3791276 -10.1578881 70.234613 87.3658881 5.37231435 96.3833709"></polygon>
                    </g>
                    <g id="Group-195" transform="translate(60.136219, 2.819671)">
                        <mask id="mask-20" fill="white">
                            <use xlink:href="#path-19"></use>
                        </mask>
                        <g id="Clip-194"></g>
                        <polygon id="Fill-193" fill="#EFEFEF" mask="url(#mask-20)" points="-8.04320635 -1.87214821 51.1173467 -10.1018011 64.2448456 82.3516974 5.08424308 90.5813405"></polygon>
                    </g>
                    <g id="Group-198" transform="translate(60.136219, 2.819671)">
                        <mask id="mask-22" fill="white">
                            <use xlink:href="#path-21"></use>
                        </mask>
                        <g id="Clip-197"></g>
                        <polygon id="Fill-196" fill="#FFFFFF" mask="url(#mask-22)" points="-8.04320635 -1.87214821 51.1173467 -10.1018011 64.2448456 82.3516974 5.08424308 90.5813405"></polygon>
                    </g>
                    <g id="Group-201" transform="translate(61.306997, 21.557765)">
                        <mask id="mask-24" fill="white">
                            <use xlink:href="#path-23"></use>
                        </mask>
                        <g id="Clip-200"></g>
                        <polygon id="Fill-199" fill="#EFEFEF" mask="url(#mask-24)" points="-6.20534062 -2.65471979 36.6997038 -8.37250139 46.4638731 57.5060293 3.55881865 63.2237447"></polygon>
                    </g>
                    <g id="Group-204" transform="translate(64.118737, 39.787345)">
                        <mask id="mask-26" fill="white">
                            <use xlink:href="#path-25"></use>
                        </mask>
                        <g id="Clip-203"></g>
                        <polygon id="Fill-202" fill="#FFFFFF" mask="url(#mask-26)" points="-4.99203593 -1.78550724 24.5707115 -5.92746094 28.4858477 21.8445946 -1.07685103 25.9865483"></polygon>
                    </g>
                    <g id="Group-207" transform="translate(80.838194, 41.958382)">
                        <mask id="mask-28" fill="white">
                            <use xlink:href="#path-27"></use>
                        </mask>
                        <g id="Clip-206"></g>
                        <polygon id="Fill-205" fill="#FDAD29" mask="url(#mask-28)" points="-4.2955215 -4.0730678 8.3975328 -6.36568479 10.7839667 15.4574972 -1.90903914 17.7501142"></polygon>
                    </g>
                </g>
            </g>
        </g>
    </g>
</svg>