<?xml version="1.0" encoding="UTF-8"?>
<svg width="101px" height="68px" viewBox="0 0 101 68" version="1.1" xmlns="http://www.w3.org/2000/svg" xmlns:xlink="http://www.w3.org/1999/xlink">
    <!-- Generator: Sketch 53.2 (72643) - https://sketchapp.com -->
    <title>illu/eye3</title>
    <desc>Created with Sketch.</desc>
    <defs>
        <path d="M62.7489269,5.48838958 C93.9983817,18.6799899 103.549387,50.4581487 101.96527,54.170264 C100.380728,57.8824216 70.7604203,73.1245868 39.5109656,59.9329443 C8.37153672,46.7877739 -1.28949425,14.9631851 0.29462256,11.2510698 C1.87916418,7.53891228 31.4994722,-7.70325294 62.7489269,5.48838958 Z M42.1995887,53.6335945 C53.8631744,58.5572402 67.3109624,53.2153024 72.2561767,41.6289367 C77.2013909,30.0426131 71.7238896,16.711385 60.0603039,11.7877393 C48.3967182,6.86409361 34.9489301,12.2060314 30.0037159,23.7923972 C25.0585017,35.3787207 30.5360029,48.7099489 42.1995887,53.6335945 Z M61.4732222,37.0768996 C58.9761886,42.9263139 52.338531,45.6999864 46.6167639,43.2846146 C40.8949969,40.8692428 38.2900614,34.1938485 40.7866703,28.3444342 C43.283704,22.4950199 49.9213616,19.7213475 55.6431286,22.1367192 C61.3648957,24.552091 63.9698311,31.2274854 61.4732222,37.0768996 Z" id="path-1"></path>
    </defs>
    <g id="2nd" stroke="none" stroke-width="1" fill="none" fill-rule="evenodd">
        <g id="патрулькачества_landing_fin" transform="translate(-413.000000, -4097.000000)">
            <g id="3step" transform="translate(-322.000000, 3415.000000)">
                <g transform="translate(0.499949, 0.859320)" id="illu/3step">
                    <g transform="translate(0.500051, 0.140680)">
                        <g id="illu/eye3" transform="translate(785.203050, 714.859320) rotate(-49.000000) translate(-785.203050, -714.859320) translate(733.703050, 681.859320)">
                            <mask id="mask-2" fill="white">
                                <use xlink:href="#path-1"></use>
                            </mask>
                            <g id="Clip-261"></g>
                            <polygon id="Fill-260" fill="#FFCB49" mask="url(#mask-2)" points="1.21015864 -43.6173626 141.508024 15.5135247 101.80589 108.382637 -38.4919756 49.2517501"></polygon>
                        </g>
                    </g>
                </g>
            </g>
        </g>
    </g>
</svg>