<?xml version="1.0" encoding="UTF-8"?>
<svg width="62px" height="48px" viewBox="0 0 62 48" version="1.1" xmlns="http://www.w3.org/2000/svg" xmlns:xlink="http://www.w3.org/1999/xlink">
    <!-- Generator: Sketch 53.2 (72643) - https://sketchapp.com -->
    <title>iconmain/14@1x</title>
    <desc>Created with Sketch.</desc>
    <g id="2nd" stroke="none" stroke-width="1" fill="none" fill-rule="evenodd">
        <g id="патрулькачества_landing_fin" transform="translate(-1002.000000, -632.000000)">
            <g id="1-srceen" transform="translate(-9.000000, 0.000000)">
                <g id="iconmain" transform="translate(176.000000, 553.000000)">
                    <g id="iconmain/14" transform="translate(836.000000, 80.000000)">
                        <path d="M54.254,0 L49,0 L49,7 L60,7 C60,3 57.428,0 54.254,0" id="Fill-275" fill="#FFD152"></path>
                        <path d="M52,7 L60,7 C60,3 57.428,0 54.254,0 L45,0" id="Stroke-277" stroke="#325699" stroke-width="2"></path>
                        <path d="M54.9707301,0 C51.7702142,0 49.2792419,2.679 49.2792419,5.873 L49.2792419,39.891 C49.2792419,43.086 46.2694853,46 43.0689694,46 L19,46 L19,5.748 C19,2.554 21.8563418,0 25.0568577,0 L55,0 L54.9707301,0" id="Fill-278" fill="#FFD152"></path>
                        <path d="M54.9707301,0 C51.7702142,0 49.2792419,2.679 49.2792419,5.873 L49.2792419,39.891 C49.2792419,43.086 46.2694853,46 43.0689694,46 L19,46 L19,5.748 C19,2.554 21.8563418,0 25.0568577,0 L55,0 L54.9707301,0 Z" id="Stroke-279" stroke="#325699" stroke-width="2"></path>
                        <path d="M37.4466553,40 L12,40 C12.8811654,43 15.819051,46 18.4845764,46 L43,46 C40.335476,46 38.10052,43 37.4466553,40" id="Fill-280" fill="#FFD152"></path>
                        <path d="M37.2306879,40 L12,40 C12.8736869,43 15.7866385,46 18.4295414,46 L42.7369011,46 C40.094991,46 37.8790033,43 37.2306879,40 Z M25.1291314,10 L43,10 L25.1291314,10 Z M25.1291314,14 L43,14 L25.1291314,14 Z M25.1291314,18 L43,18 L25.1291314,18 Z M37.0430438,34 L43,34 L37.0430438,34 Z" id="Stroke-281" stroke="#325699" stroke-width="2"></path>
                        <path d="M29,32 C29,32 28.4364314,27.2714364 26.0505924,24.885554 C23.6657353,22.4996716 7.0866088,5.92122556 7.0866088,5.92122556 C5.90743488,4.74203019 4.05178232,4.66642816 2.85886282,5.85936935 C1.66692515,7.05132869 1.74154398,8.90701499 2.92169973,10.0871922 C2.92169973,10.0871922 19.4998444,26.6656383 21.8856834,29.0515207 C24.2705406,31.4364212 29,32 29,32" id="Fill-282" fill="#FFD152"></path>
                        <path d="M28.7735973,32.7458537 C28.7735973,32.7458537 28.2072617,27.8866672 25.8097086,25.4348767 C23.4131421,22.9830862 6.75261462,5.94667369 6.75261462,5.94667369 C5.56765112,4.73490398 3.70288759,4.6572135 2.50411103,5.88310875 C1.30632112,7.10799503 1.38130632,9.01494319 2.56725646,10.2277219 C2.56725646,10.2277219 19.2267973,27.2641344 21.6243505,29.7159249 C24.0209169,32.1667064 28.7735973,32.7458537 28.7735973,32.7458537 Z M9.07024929,22.5855531 L0,13.3101169 L9.07024929,22.5855531 Z M2.79122542,16.1644854 L4.88390449,14.0234568 L2.79122542,16.1644854 Z M28.6048806,32.5733203 L30,34 L28.6048806,32.5733203 Z M21.628297,29.7199608 L25.8136552,25.4389126 L21.628297,29.7199608 Z M5.58146418,13.3101169 L9.76780899,9.0300777 L5.58146418,13.3101169 Z" id="Stroke-283" stroke="#325699" stroke-width="2" stroke-linecap="round"></path>
                        <path d="M33,33.5 L35,33.5" id="Stroke-284" stroke="#325699" stroke-width="2"></path>
                    </g>
                </g>
            </g>
        </g>
    </g>
</svg>