<?xml version="1.0" encoding="UTF-8"?>
<svg width="57px" height="58px" viewBox="0 0 57 58" version="1.1" xmlns="http://www.w3.org/2000/svg" xmlns:xlink="http://www.w3.org/1999/xlink">
    <!-- Generator: Sketch 53.2 (72643) - https://sketchapp.com -->
    <title>iconmain/2300000@1x</title>
    <desc>Created with Sketch.</desc>
    <g id="2nd" stroke="none" stroke-width="1" fill="none" fill-rule="evenodd">
        <g id="патрулькачества_landing_fin" transform="translate(-683.000000, -553.000000)">
            <g id="1-srceen" transform="translate(-9.000000, 0.000000)">
                <g id="iconmain" transform="translate(176.000000, 553.000000)">
                    <g id="iconmain/2300000" transform="translate(517.000000, 0.000000)">
                        <polygon id="Fill-238" fill="#FFD152" points="0 36 55 36 55 6 0 6"></polygon>
                        <path d="M35,11 L8,11 L8,11.029 C8,12.684 6.657,14.054 5,14.054 L5,28.019 C7,28.019 8,29.346 8,31 L35,31 L35,11" id="Fill-239" fill="#FFD152"></path>
                        <path d="M36,36 L0,36 L0,6 L35,6 M41,6 L55,6 L55,36 L51,36 M12,21 L15,21 M42,21 L45,21" id="Stroke-240" stroke="#325699" stroke-width="2"></path>
                        <path d="M22.0000012,20.9969999 C22.0020014,17.683448 24.4662245,14.9980008 27.5044996,15.0000011 C30.5417747,15.0010013 33.0029975,17.6884489 32.9999973,21.0020008 C32.9979971,24.3165528 30.5337739,27.0009999 27.4964989,26.9999997 C24.4582238,26.9979994 21.998001,24.3105518 22.0000012,20.9969999" id="Fill-241" fill="#FFD152"></path>
                        <g id="Group-24" transform="translate(5.000000, 0.000000)">
                            <polygon id="Path-8" fill="#FFD152" points="41 30 32 39 29 36 21 36 28 44 22 50 17 50 16 51 17 55 21 57 33 47 43 57 47 56 49 51 45 49 42 50 37 46 33 46 43 36 45 31 45 26"></polygon>
                            <path d="M17.1626069,21.1744604 C17.1646261,17.8342553 19.6521945,15.1272071 22.7192533,15.1292235 C25.7853026,15.1302318 28.2698423,17.8392964 28.2668136,21.1795015 C28.2647945,24.5207148 25.7772261,27.2267548 22.7111768,27.2257465 C19.644118,27.2237301 17.1605878,24.5146655 17.1626069,21.1744604 Z M30.2869534,11.0903278 L3.02869534,11.0903278 C3.02869534,12.7609345 1.67284939,14.1149627 0,14.1149627 L0,28.2742866 C2.01913023,28.2742866 3.02869534,29.6131917 3.02869534,31.2837983 L30.2869534,31.2545602 L30.2869534,11.0903278 Z M36.3443441,11.0903278 L42.4017348,11.0903278 C42.4017348,13.106751 43.7575808,14.1744471 45.4304301,14.1744471 L45.4304301,21.172444 L36.3443441,11.0903278 Z M33.3156488,0 L33.3156488,4.03284647 L33.3156488,0 Z M33.3156488,7.05748133 L33.3156488,11.0903278 L33.3156488,7.05748133 Z M33.3156488,14.1149627 L33.3156488,18.1478091 L33.3156488,14.1149627 Z M33.3156488,21.172444 L33.3156488,25.2052905 L33.3156488,21.172444 Z M33.3156488,28.2299253 L33.3156488,32.2627718 L33.3156488,28.2299253 Z M32.3060837,46.3777344 L41.8969522,55.9557448 C43.2911617,57.3480851 45.5505684,57.3480851 46.9447778,55.9557448 L47.9543429,54.9475332 C49.3485524,53.555193 49.3485524,51.2988154 47.9543429,49.9064751 C46.5601335,48.5141349 44.3007268,48.5141349 42.9065174,49.9064751 L42.4017348,50.4105809 L37.3539092,45.3695228 L32.3060837,46.3777344 Z M29.2773883,43.3530996 L22.2104325,50.4105809 L21.70565,49.9064751 C20.3114405,48.5141349 18.0520338,48.5141349 16.6578244,49.9064751 C15.263615,51.2988154 15.263615,53.555193 16.6578244,54.9475332 L17.6673895,55.9557448 C19.0615989,57.3480851 21.3210057,57.3480851 22.7152151,55.9557448 L42.3623618,36.2956183 C44.3522146,34.3084332 45.4304301,31.6134835 45.4304301,28.8035977 L45.4304301,25.12665 L34.2858408,36.2956183 L29.2773883,43.3530996 Z M32.3979541,39.2285059 L29.4581005,36.2936018 L32.3979541,39.2285059 Z M27.2582581,42.344888 L21.2008674,36.2956183 L27.2582581,42.344888 Z" id="Stroke-242" stroke="#325699" stroke-width="2"></path>
                        </g>
                    </g>
                </g>
            </g>
        </g>
    </g>
</svg>