<?xml version="1.0" encoding="UTF-8"?>
<svg width="64px" height="56px" viewBox="0 0 64 56" version="1.1" xmlns="http://www.w3.org/2000/svg" xmlns:xlink="http://www.w3.org/1999/xlink">
    <!-- Generator: Sketch 53.2 (72643) - https://sketchapp.com -->
    <title>iconmain/400@1x</title>
    <desc>Created with Sketch.</desc>
    <g id="2nd" stroke="none" stroke-width="1" fill="none" fill-rule="evenodd">
        <g id="патрулькачества_landing_fin" transform="translate(-1217.000000, -554.000000)">
            <g id="1-srceen" transform="translate(-9.000000, 0.000000)">
                <g id="iconmain" transform="translate(176.000000, 553.000000)">
                    <g id="iconmain/400" transform="translate(1051.000000, 2.000000)">
                        <path d="M41,48 L40,48 L40,47 C40,45.343 38.657,44 37,44 L25,44 C23.343,44 22,45.343 22,47 L22,48 L21,48 C19.343,48 18,49.343 18,51 L18,54 L44,54 L44,51 C44,49.343 42.657,48 41,48" id="Fill-321" fill="#FFD152"></path>
                        <path d="M22,48 L22,47 C22,45.343 23.343,44 25,44 L37,44 C38.657,44 40,45.343 40,47 L40,48 M30,48 L21,48 C19.343,48 18,49.343 18,51 L18,54 L44,54 L44,51 C44,49.343 42.657,48 41,48 L37,48 M32,48 L34,48 M33,19 L33,43 M29,43 L29,19 M50,16 L43,33 L43,35 M60,35 L60,33 L52,16" id="Stroke-322" stroke="#325699" stroke-width="2"></path>
                        <path d="M41,35 L41,37 C42.897,40.604 46.979,43 51.5,43 C56.021,43 60.103,40.604 62,37 L62,35 L41,35" id="Fill-323" fill="#FFD152"></path>
                        <path d="M41,35 L41,37 C42.897,40.604 46.979,43 51.5,43 C56.021,43 60.103,40.604 62,37 L62,35 L41,35 Z M9,16 L2,33 L2,35 L9,16 Z M19,35 L19,33 L11,16 L19,35 Z" id="Stroke-324" stroke="#325699" stroke-width="2"></path>
                        <path d="M0,35 L0,37 C1.897,40.604 5.979,43 10.5,43 C15.021,43 19.103,40.604 21,37 L21,35 L0,35" id="Fill-325" fill="#FFD152"></path>
                        <path d="M0,35 L0,37 C1.897,40.604 5.979,43 10.5,43 C15.021,43 19.103,40.604 21,37 L21,35 L0,35 Z M27.8,3.2 C27.8,1.433 29.233,-3.55271368e-15 31,-3.55271368e-15 C32.767,-3.55271368e-15 34.2,1.433 34.2,3.2 L27.8,3.2 Z M13,54 L18,54 L13,54 Z M11,54 L9,54 L11,54 Z M44,54 L47,54 L44,54 Z M49,54 L51,54 L49,54 Z M53,54 L55,54 L53,54 Z" id="Stroke-326" stroke="#325699" stroke-width="2"></path>
                        <path d="M54,10 C52,10 49,11.878 44,9.003 C38.261,5.703 34.417,4.684 31,8.184 C27.583,4.684 23.739,5.703 18,9.003 C13,11.878 10,10 8,10 C6.343,10 5,11.341 5,12.998 C5,14.654 6.343,16 8,16 C9.814,16 10.843,15.873 14,15 C15.991,14.45 19.917,13 23,13 C26.083,13 28,16 31,16 C34,16 35.917,13 39,13 C42.083,13 46.009,14.45 48,15 C51.157,15.873 52.186,16 54,16 C55.657,16 57,14.654 57,12.998 C57,11.341 55.657,10 54,10" id="Fill-327" fill="#FFD152"></path>
                        <path d="M54,10 C52,10 49,11.878 44,9.003 C38.261,5.703 34.417,4.684 31,8.184 C27.583,4.684 23.739,5.703 18,9.003 C13,11.878 10,10 8,10 C6.343,10 5,11.341 5,12.998 C5,14.654 6.343,16 8,16 C9.814,16 10.843,15.873 14,15 C15.991,14.45 19.917,13 23,13 C26.083,13 28,16 31,16 C34,16 35.917,13 39,13 C42.083,13 46.009,14.45 48,15 C51.157,15.873 52.186,16 54,16 C55.657,16 57,14.654 57,12.998 C57,11.341 55.657,10 54,10 Z" id="Stroke-328" stroke="#325699" stroke-width="2"></path>
                    </g>
                </g>
            </g>
        </g>
    </g>
</svg>