<?xml version="1.0" encoding="UTF-8"?>
<svg width="61px" height="47px" viewBox="0 0 61 47" version="1.1" xmlns="http://www.w3.org/2000/svg" xmlns:xlink="http://www.w3.org/1999/xlink">
    <!-- Generator: Sketch 53.2 (72643) - https://sketchapp.com -->
    <title>iconmain/6000@1x</title>
    <desc>Created with Sketch.</desc>
    <g id="2nd" stroke="none" stroke-width="1" fill="none" fill-rule="evenodd">
        <g id="патрулькачества_landing_fin" transform="translate(-393.000000, -627.000000)">
            <g id="1-srceen" transform="translate(-9.000000, 0.000000)">
                <g id="iconmain" transform="translate(176.000000, 553.000000)">
                    <g id="iconmain/6000" transform="translate(227.000000, 75.000000)">
                        <path d="M18,13 C21.006,13 23,10.506 23,7.429 L23,5.571 C23,2.494 21.007,0 18,0 C14.994,0 13,2.494 13,5.571 L13,7.429 C13,10.506 14.994,13 18,13" id="Fill-156" fill="#FFD152"></path>
                        <path d="M18,13 C21.006,13 23,10.506 23,7.429 L23,5.571 C23,2.494 21.007,0 18,0 C14.994,0 13,2.494 13,5.571 L13,7.429 C13,10.506 14.994,13 18,13 Z" id="Stroke-157" stroke="#325699" stroke-width="2"></path>
                        <path d="M18.003,13 C14.407,13 10,15.535 10,17 L10,23 C10,24.465 14.407,27 18.003,27 C21.6,27 26.006,24.465 26.006,23 L26.006,17 C26.006,15.535 21.6,13 18.003,13" id="Fill-158" fill="#FFD152"></path>
                        <path d="M26.006,23 L26.006,17 C26.006,15.535 21.6,13 18.003,13 L18.009,13 L17.997,13 L18.003,13 C14.407,13 10,15.535 10,17 L10,23" id="Stroke-159" stroke="#325699" stroke-width="2" stroke-linecap="round" stroke-linejoin="round"></path>
                        <path d="M8,32 C11.006,32 13,29.506 13,26.429 L13,24.571 C13,21.494 11.007,19 8,19 C4.994,19 3,21.494 3,24.571 L3,26.429 C3,29.506 4.994,32 8,32" id="Fill-160" fill="#FFD152"></path>
                        <path d="M8,32 C11.006,32 13,29.506 13,26.429 L13,24.571 C13,21.494 11.007,19 8,19 C4.994,19 3,21.494 3,24.571 L3,26.429 C3,29.506 4.994,32 8,32 Z" id="Stroke-161" stroke="#325699" stroke-width="2"></path>
                        <path d="M8.003,32 C4.407,32 0,34.535 0,36 L0,42 C0,43.465 4.407,46 8.003,46 C11.6,46 16.006,43.465 16.006,42 L16.006,36 C16.006,34.535 11.6,32 8.003,32" id="Fill-162" fill="#FFD152"></path>
                        <path d="M16.006,42 L16.006,36 C16.006,34.535 11.6,32 8.003,32 L8.009,32 L7.997,32 L8.003,32 C4.407,32 0,34.535 0,36 L0,42" id="Stroke-163" stroke="#325699" stroke-width="2" stroke-linecap="round" stroke-linejoin="round"></path>
                        <path d="M39,13 C42.006,13 44,10.506 44,7.429 L44,5.571 C44,2.494 42.007,0 39,0 C35.994,0 34,2.494 34,5.571 L34,7.429 C34,10.506 35.994,13 39,13" id="Fill-164" fill="#FFD152"></path>
                        <path d="M39,13 C42.006,13 44,10.506 44,7.429 L44,5.571 C44,2.494 42.007,0 39,0 C35.994,0 34,2.494 34,5.571 L34,7.429 C34,10.506 35.994,13 39,13 Z" id="Stroke-165" stroke="#325699" stroke-width="2"></path>
                        <path d="M39.003,13 C35.407,13 31,15.535 31,17 L31,23 C31,24.465 35.407,27 39.003,27 C42.6,27 47.006,24.465 47.006,23 L47.006,17 C47.006,15.535 42.6,13 39.003,13" id="Fill-166" fill="#FFD152"></path>
                        <path d="M47.006,23 L47.006,17 C47.006,15.535 42.6,13 39.003,13 L39.009,13 L38.997,13 L39.003,13 C35.407,13 31,15.535 31,17 L31,23" id="Stroke-167" stroke="#325699" stroke-width="2" stroke-linecap="round" stroke-linejoin="round"></path>
                        <path d="M29,32 C32.006,32 34,29.506 34,26.429 L34,24.571 C34,21.494 32.007,19 29,19 C25.994,19 24,21.494 24,24.571 L24,26.429 C24,29.506 25.994,32 29,32" id="Fill-168" fill="#FFD152"></path>
                        <path d="M29,32 C32.006,32 34,29.506 34,26.429 L34,24.571 C34,21.494 32.007,19 29,19 C25.994,19 24,21.494 24,24.571 L24,26.429 C24,29.506 25.994,32 29,32 Z" id="Stroke-169" stroke="#325699" stroke-width="2"></path>
                        <path d="M29.003,32 C25.407,32 21,34.535 21,36 L21,42 C21,43.465 25.407,46 29.003,46 C32.6,46 37.006,43.465 37.006,42 L37.006,36 C37.006,34.535 32.6,32 29.003,32" id="Fill-170" fill="#FFD152"></path>
                        <path d="M37.006,42 L37.006,36 C37.006,34.535 32.6,32 29.003,32 L29.009,32 L28.997,32 L29.003,32 C25.407,32 21,34.535 21,36 L21,42" id="Stroke-171" stroke="#325699" stroke-width="2" stroke-linecap="round" stroke-linejoin="round"></path>
                        <path d="M50,32 C53.006,32 55,29.506 55,26.429 L55,24.571 C55,21.494 53.007,19 50,19 C46.994,19 45,21.494 45,24.571 L45,26.429 C45,29.506 46.994,32 50,32" id="Fill-172" fill="#FFD152"></path>
                        <path d="M50,32 C53.006,32 55,29.506 55,26.429 L55,24.571 C55,21.494 53.007,19 50,19 C46.994,19 45,21.494 45,24.571 L45,26.429 C45,29.506 46.994,32 50,32 Z" id="Stroke-173" stroke="#325699" stroke-width="2"></path>
                        <path d="M50.003,32 C46.407,32 42,34.535 42,36 L42,42 C42,43.465 46.407,46 50.003,46 C53.6,46 58.006,43.465 58.006,42 L58.006,36 C58.006,34.535 53.6,32 50.003,32" id="Fill-174" fill="#FFD152"></path>
                        <path d="M58.006,42 L58.006,36 C58.006,34.535 53.6,32 50.003,32 L50.009,32 L49.997,32 L50.003,32 C46.407,32 42,34.535 42,36 L42,42" id="Stroke-175" stroke="#325699" stroke-width="2" stroke-linecap="round" stroke-linejoin="round"></path>
                    </g>
                </g>
            </g>
        </g>
    </g>
</svg>