<?xml version="1.0" encoding="UTF-8"?>
<svg width="275px" height="172px" viewBox="0 0 275 172" version="1.1" xmlns="http://www.w3.org/2000/svg" xmlns:xlink="http://www.w3.org/1999/xlink">
    <!-- Generator: Sketch 53.2 (72643) - https://sketchapp.com -->
    <title>main/rupor</title>
    <desc>Created with Sketch.</desc>
    <defs>
        <polygon id="path-1" points="3.55813345 37.4120983 27.9088153 25.1773659 17.4573818 18.9530717 52.3093422 8.39458245 29.2418911 19.5426492 41.2417786 26.8477535"></polygon>
        <polygon id="path-3" points="5.21443737 53.8483838 40.8682127 35.9261508 25.5566541 26.790922 76.5915092 11.334748 42.8162761 27.6644892 60.3964721 38.3857902"></polygon>
        <filter x="-14.6%" y="-13.7%" width="129.1%" height="127.4%" filterUnits="objectBoundingBox" id="filter-5">
            <feOffset dx="0" dy="2" in="SourceAlpha" result="shadowOffsetOuter1"></feOffset>
            <feGaussianBlur stdDeviation="5" in="shadowOffsetOuter1" result="shadowBlurOuter1"></feGaussianBlur>
            <feColorMatrix values="0 0 0 0 0.196078431   0 0 0 0 0.337254902   0 0 0 0 0.6  0 0 0 0.15 0" type="matrix" in="shadowBlurOuter1" result="shadowMatrixOuter1"></feColorMatrix>
            <feMerge>
                <feMergeNode in="shadowMatrixOuter1"></feMergeNode>
                <feMergeNode in="SourceGraphic"></feMergeNode>
            </feMerge>
        </filter>
        <polygon id="path-6" points="0.82890876 5.42436308 7.06538941 0.814943294 13.1083696 0.166061198 17.1473469 13.2489569 34.6878385 30.7410155 23.1956461 43.7981737 19.8068094 44.3599747 19.7044382 38.6453227 6.45963775 19.0999472"></polygon>
        <polygon id="path-8" points="0.7733821 5.60734624 7.01088131 0.95286349 13.0540123 0.298652251 17.0928388 13.5080539 34.6323118 31.1707496 23.140132 44.3551706 6.40512965 19.4160838"></polygon>
        <path d="M0.828970998,41.8454703 L15.3335584,35.3607147 L94.7288923,0.138610948 L121.626794,53.6392621 C74.2731287,48.8785141 41.7151289,56.4007299 23.7801727,62.7394824 C16.1912565,61.7382762 6.46780218,53.4818648 0.828970998,41.8454703 Z" id="path-10"></path>
        <path d="M20.2027069,0.21360353 L20.3600669,0.399259762 C25.9289788,12.8119175 34.9306771,21.6298515 42.2008826,22.708169 C34.9580237,25.584891 30.2182439,28.2469774 27.9821265,29.6161507 C27.4844621,30.005884 26.9816631,30.3341657 26.4786993,30.5839165 C19.2463124,34.1651334 7.49596104,24.4983259 0.886535767,9.76716327 L14.0273402,3.32686159 L20.2027069,0.21360353 Z" id="path-12"></path>
        <path d="M26.9054833,31.1604239 L20.3499271,34.0956306 L5.94676058,40.5426733 C-1.18605856,26.1685429 -0.618620945,11.0708816 7.18894892,7.57608805 C7.73198724,7.33334725 8.33737171,7.14102085 8.98895474,6.98822245 C11.6091765,6.07091365 16.9744766,3.97567045 24.2310165,0.0355712473 C20.0896908,6.45427045 20.8945255,19.0478394 26.9054833,31.1604239 Z" id="path-14"></path>
        <path d="M3.18668426,66.1283154 C19.3466044,57.0733896 45.4970066,37.9548405 70.9417329,0.117504914 L96.924199,54.1415875 L19.9156291,89.7142374 L5.69768273,96.2813939 C0.0541256859,84.546991 -0.700488205,72.346483 3.18668426,66.1283154 Z" id="path-16"></path>
        <path d="M72.1362372,42.4711032 C86.7064063,72.5329171 84.7319289,103.22172 67.7248098,111.015899 C50.7191257,118.811964 25.1197098,100.761328 10.5485101,70.6995773 C-4.02267663,40.63789 -2.04821226,9.9490241 14.9598592,2.15470516 C31.9667434,-5.64049927 57.5650244,12.4092894 72.1362372,42.4711032 Z" id="path-18"></path>
        <path d="M62.4900486,104.140593 C47.7407267,110.905099 23.8945183,93.1142436 10.4172537,65.2932882 C-3.06016963,37.4713568 -1.98561343,8.25292255 12.7626761,1.48858401 C27.5121436,-5.27485563 51.3582726,12.5149849 64.8355239,40.335889 C78.3127752,68.1567931 77.2393705,97.3760877 62.4900486,104.140593 Z" id="path-20"></path>
        <path d="M62.4900486,104.140593 C47.7407267,110.905099 23.8945183,93.1142436 10.4172537,65.2932882 C-3.06016963,37.4713568 -1.98561343,8.25292255 12.7626761,1.48858401 C27.5121436,-5.27485563 51.3582726,12.5149849 64.8355239,40.335889 C78.3127752,68.1567931 77.2393705,97.3760877 62.4900486,104.140593 Z" id="path-22"></path>
        <path d="M7.78391183,1.13809864 C18.2960071,-3.48096879 35.2940439,8.66688814 44.8997652,27.6654061 C54.5065547,46.662683 53.7410506,66.6152225 43.2277536,71.2334088 C39.8829292,72.7033366 35.8804897,72.4695163 31.6694827,70.8638387 C23.6223027,64.0160446 15.9567264,54.3436295 10.1802748,42.9193247 C4.40382329,31.4950199 1.27807493,19.8284554 0.733182347,9.6838326 C2.08473173,5.63429873 4.43908749,2.60803885 7.78391183,1.13809864 Z" id="path-24"></path>
        <path d="M20.7221885,0.420265207 C22.6741868,-0.480622838 25.8304763,1.89063181 27.6144037,5.59874566 C29.3984615,9.30787963 29.2559665,13.2030569 27.3039682,14.1039449 C27.1687807,14.1665544 27.0168904,14.216795 26.8537781,14.2559419 C26.1979359,14.4926083 24.8572827,15.0330136 23.0426902,16.0501946 C20.0084348,17.7503419 15.6505552,20.7921939 10.9700002,25.9644261 C8.96989026,22.7805233 7.09605539,19.4053491 5.39260118,15.8632588 C3.68913391,12.3211684 2.22595074,8.75650809 0.992012212,5.2191358 C8.04176784,4.9727783 13.2099506,3.61449671 16.4789442,2.40285648 C18.4339046,1.67857564 19.7131101,1.00836084 20.3161039,0.663562361 C20.4516829,0.566396516 20.5870009,0.482874695 20.7221885,0.420265207 Z" id="path-26"></path>
        <path d="M1.90704641,8.92204006 C0.42656837,4.9543574 0.31723005,1.08745339 1.66305137,0.286263133 C3.00951051,-0.516016627 5.30092343,2.05138756 6.78143391,6.01907021 C8.26118764,9.98797856 8.37059083,13.8550188 7.02478032,14.6560728 C5.67896981,15.4572631 3.3877731,12.8908122 1.90704641,8.92204006 Z" id="path-28"></path>
        <polygon id="path-30" points="0.82890876 5.42436308 7.06538941 0.814943294 13.1083696 0.166061198 17.1473469 13.2489569 34.6878385 30.7410155 23.1956461 43.7981737 19.8068094 44.3599747 19.7044382 38.6453227 6.45963775 19.0999472"></polygon>
        <polygon id="path-32" points="0.7733821 5.60734624 7.01088131 0.95286349 13.0540123 0.298652251 17.0928388 13.5080539 34.6323118 31.1707496 23.140132 44.3551706 6.40512965 19.4160838"></polygon>
        <path d="M0.828970998,41.8454703 L15.3335584,35.3607147 L94.7288923,0.138610948 L121.626794,53.6392621 C74.2731287,48.8785141 41.7151289,56.4007299 23.7801727,62.7394824 C16.1912565,61.7382762 6.46780218,53.4818648 0.828970998,41.8454703 Z" id="path-34"></path>
        <path d="M20.2027069,0.21360353 L20.3600669,0.399259762 C25.9289788,12.8119175 34.9306771,21.6298515 42.2008826,22.708169 C34.9580237,25.584891 30.2182439,28.2469774 27.9821265,29.6161507 C27.4844621,30.005884 26.9816631,30.3341657 26.4786993,30.5839165 C19.2463124,34.1651334 7.49596104,24.4983259 0.886535767,9.76716327 L14.0273402,3.32686159 L20.2027069,0.21360353 Z" id="path-36"></path>
        <path d="M26.9054833,31.1604239 L20.3499271,34.0956306 L5.94676058,40.5426733 C-1.18605856,26.1685429 -0.618620945,11.0708816 7.18894892,7.57608805 C7.73198724,7.33334725 8.33737171,7.14102085 8.98895474,6.98822245 C11.6091765,6.07091365 16.9744766,3.97567045 24.2310165,0.0355712473 C20.0896908,6.45427045 20.8945255,19.0478394 26.9054833,31.1604239 Z" id="path-38"></path>
        <path d="M3.18668426,66.1283154 C19.3466044,57.0733896 45.4970066,37.9548405 70.9417329,0.117504914 L96.924199,54.1415875 L19.9156291,89.7142374 L5.69768273,96.2813939 C0.0541256859,84.546991 -0.700488205,72.346483 3.18668426,66.1283154 Z" id="path-40"></path>
        <path d="M72.1362372,42.4711032 C86.7064063,72.5329171 84.7319289,103.22172 67.7248098,111.015899 C50.7191257,118.811964 25.1197098,100.761328 10.5485101,70.6995773 C-4.02267663,40.63789 -2.04821226,9.9490241 14.9598592,2.15470516 C31.9667434,-5.64049927 57.5650244,12.4092894 72.1362372,42.4711032 Z" id="path-42"></path>
        <path d="M62.4900486,104.140593 C47.7407267,110.905099 23.8945183,93.1142436 10.4172537,65.2932882 C-3.06016963,37.4713568 -1.98561343,8.25292255 12.7626761,1.48858401 C27.5121436,-5.27485563 51.3582726,12.5149849 64.8355239,40.335889 C78.3127752,68.1567931 77.2393705,97.3760877 62.4900486,104.140593 Z" id="path-44"></path>
        <path d="M62.4900486,104.140593 C47.7407267,110.905099 23.8945183,93.1142436 10.4172537,65.2932882 C-3.06016963,37.4713568 -1.98561343,8.25292255 12.7626761,1.48858401 C27.5121436,-5.27485563 51.3582726,12.5149849 64.8355239,40.335889 C78.3127752,68.1567931 77.2393705,97.3760877 62.4900486,104.140593 Z" id="path-46"></path>
        <path d="M7.78391183,1.13809864 C18.2960071,-3.48096879 35.2940439,8.66688814 44.8997652,27.6654061 C54.5065547,46.662683 53.7410506,66.6152225 43.2277536,71.2334088 C39.8829292,72.7033366 35.8804897,72.4695163 31.6694827,70.8638387 C23.6223027,64.0160446 15.9567264,54.3436295 10.1802748,42.9193247 C4.40382329,31.4950199 1.27807493,19.8284554 0.733182347,9.6838326 C2.08473173,5.63429873 4.43908749,2.60803885 7.78391183,1.13809864 Z" id="path-48"></path>
        <path d="M20.7221885,0.420265207 C22.6741868,-0.480622838 25.8304763,1.89063181 27.6144037,5.59874566 C29.3984615,9.30787963 29.2559665,13.2030569 27.3039682,14.1039449 C27.1687807,14.1665544 27.0168904,14.216795 26.8537781,14.2559419 C26.1979359,14.4926083 24.8572827,15.0330136 23.0426902,16.0501946 C20.0084348,17.7503419 15.6505552,20.7921939 10.9700002,25.9644261 C8.96989026,22.7805233 7.09605539,19.4053491 5.39260118,15.8632588 C3.68913391,12.3211684 2.22595074,8.75650809 0.992012212,5.2191358 C8.04176784,4.9727783 13.2099506,3.61449671 16.4789442,2.40285648 C18.4339046,1.67857564 19.7131101,1.00836084 20.3161039,0.663562361 C20.4516829,0.566396516 20.5870009,0.482874695 20.7221885,0.420265207 Z" id="path-50"></path>
        <path d="M1.90704641,8.92204006 C0.42656837,4.9543574 0.31723005,1.08745339 1.66305137,0.286263133 C3.00951051,-0.516016627 5.30092343,2.05138756 6.78143391,6.01907021 C8.26118764,9.98797856 8.37059083,13.8550188 7.02478032,14.6560728 C5.67896981,15.4572631 3.3877731,12.8908122 1.90704641,8.92204006 Z" id="path-52"></path>
    </defs>
    <g id="2nd" stroke="none" stroke-width="1" fill="none" fill-rule="evenodd">
        <g id="патрулькачества_landing_fin" transform="translate(-99.000000, -222.000000)">
            <g id="illu/main" transform="translate(91.000000, 207.000000)">
                <g id="main/rupor">
                    <g id="illu/main/molniya02" transform="translate(210.000000, 37.500000) scale(-1, 1) rotate(-129.000000) translate(-210.000000, -37.500000) translate(182.000000, 15.000000)">
                        <mask id="mask-2" fill="white">
                            <use xlink:href="#path-1"></use>
                        </mask>
                        <g id="Clip-219" transform="translate(27.933738, 22.903340) rotate(20.000000) translate(-27.933738, -22.903340) "></g>
                        <polygon id="Fill-218" fill="#FFCB49" mask="url(#mask-2)" transform="translate(27.933738, 22.903340) rotate(20.000000) translate(-27.933738, -22.903340) " points="-7.93067446 10.0773448 58.864775 0.695740893 63.7981502 35.729336 -2.99729935 45.1109399"></polygon>
                    </g>
                    <g id="illu/main/molniya01" transform="translate(242.000000, 96.500000) scale(-1, 1) rotate(-181.000000) translate(-242.000000, -96.500000) translate(201.000000, 64.000000)">
                        <mask id="mask-4" fill="white">
                            <use xlink:href="#path-3"></use>
                        </mask>
                        <g id="Clip-219" transform="translate(40.902973, 32.591566) rotate(20.000000) translate(-40.902973, -32.591566) "></g>
                        <polygon id="Fill-218" fill="#FFCB49" mask="url(#mask-4)" transform="translate(40.902973, 32.591566) rotate(20.000000) translate(-40.902973, -32.591566) " points="-11.632577 13.7562337 86.1864703 0.0502743556 93.4385235 51.4268981 -4.38052371 65.1328574"></polygon>
                    </g>
                    <g id="illu/main/rupor0">
                        <g id="Group-5" filter="url(#filter-5)" transform="translate(96.000000, 100.000000) rotate(13.000000) translate(-96.000000, -100.000000) translate(17.000000, 16.000000)">
                            <g id="Group-174" transform="translate(34.740695, 122.332726)">
                                <mask id="mask-7" fill="white">
                                    <use xlink:href="#path-6"></use>
                                </mask>
                                <g id="Clip-173"></g>
                                <polygon id="Fill-172" fill="#FFA717" mask="url(#mask-7)" points="-6.79990035 -3.49660454 35.2944704 -9.29294127 43.4165247 47.329725 1.32214141 53.1260617"></polygon>
                            </g>
                            <g id="Group-177" transform="translate(32.471756, 120.944096)">
                                <mask id="mask-9" fill="white">
                                    <use xlink:href="#path-8"></use>
                                </mask>
                                <g id="Clip-176"></g>
                                <polygon id="Fill-175" fill="#FFBA2F" mask="url(#mask-9)" points="-6.85542701 -3.40057038 35.2389563 -9.25340162 43.3476185 47.8269178 1.25323519 53.679749"></polygon>
                            </g>
                            <g id="Group-180" transform="translate(19.185240, 57.303596)">
                                <mask id="mask-11" fill="white">
                                    <use xlink:href="#path-10"></use>
                                </mask>
                                <g id="Clip-179"></g>
                                <polygon id="Fill-178" fill="#EFEFEF" mask="url(#mask-11)" points="-10.9943356 7.75752909 118.824397 -9.24307218 129.100205 58.8868266 -0.718540721 75.8874279"></polygon>
                            </g>
                            <g id="Group-183" transform="translate(4.650207, 99.585398)">
                                <mask id="mask-13" fill="white">
                                    <use xlink:href="#path-12"></use>
                                </mask>
                                <g id="Clip-182"></g>
                                <polygon id="Fill-181" fill="#FDAD29" mask="url(#mask-13)" points="-7.15576334 -2.46432725 44.2105066 -10.0267608 50.1379539 34.1552789 -1.22831601 41.7177124"></polygon>
                            </g>
                            <g id="Group-186" transform="translate(0.091121, 68.219027)">
                                <mask id="mask-15" fill="white">
                                    <use xlink:href="#path-14"></use>
                                </mask>
                                <g id="Clip-185"></g>
                                <polygon id="Fill-184" fill="#FFC248" mask="url(#mask-15)" points="-9.75580883 -1.98437435 30.0543747 -7.28319995 37.4994173 42.8866708 -2.31077995 48.1854445"></polygon>
                            </g>
                            <g id="Group-189" transform="translate(19.468740, 3.407369)">
                                <mask id="mask-17" fill="white">
                                    <use xlink:href="#path-16"></use>
                                </mask>
                                <g id="Clip-188"></g>
                                <polygon id="Fill-187" fill="#FFFFFF" mask="url(#mask-17)" points="-16.2575806 5.7541083 94.2694186 -9.42569879 108.355827 88.5217167 -2.17113347 103.701474"></polygon>
                            </g>
                            <g id="Group-192" transform="translate(74.894306, 0.411756)">
                                <mask id="mask-19" fill="white">
                                    <use xlink:href="#path-18"></use>
                                </mask>
                                <g id="Clip-191"></g>
                                <polygon id="Fill-190" fill="#FDAD29" mask="url(#mask-19)" points="-11.3588484 -1.49679462 75.4906962 -13.3322281 94.0429564 114.667728 7.19343786 126.503174"></polygon>
                            </g>
                            <g id="Group-195" transform="translate(80.521378, 3.700818)">
                                <mask id="mask-21" fill="white">
                                    <use xlink:href="#path-20"></use>
                                </mask>
                                <g id="Clip-194"></g>
                                <polygon id="Fill-193" fill="#EFEFEF" mask="url(#mask-21)" points="-10.769717 -2.45719453 68.4452609 -13.258614 86.0227593 108.086603 6.80771531 118.888009"></polygon>
                            </g>
                            <g id="Group-198" transform="translate(80.521378, 3.700818)">
                                <mask id="mask-23" fill="white">
                                    <use xlink:href="#path-22"></use>
                                </mask>
                                <g id="Clip-197"></g>
                                <polygon id="Fill-196" fill="#FFFFFF" mask="url(#mask-23)" points="-10.769717 -2.45719453 68.4452609 -13.258614 86.0227593 108.086603 6.80771531 118.888009"></polygon>
                            </g>
                            <g id="Group-201" transform="translate(82.089030, 28.294566)">
                                <mask id="mask-25" fill="white">
                                    <use xlink:href="#path-24"></use>
                                </mask>
                                <g id="Clip-200"></g>
                                <polygon id="Fill-199" fill="#EFEFEF" mask="url(#mask-25)" points="-8.30884591 -3.48431972 49.1402814 -10.9889081 62.2143385 75.4766635 4.76519785 82.981165"></polygon>
                            </g>
                            <g id="Group-204" transform="translate(85.853902, 52.220890)">
                                <mask id="mask-27" fill="white">
                                    <use xlink:href="#path-26"></use>
                                </mask>
                                <g id="Clip-203"></g>
                                <polygon id="Fill-202" fill="#FFFFFF" mask="url(#mask-27)" points="-6.68425149 -2.34347825 32.8997663 -7.77979248 38.1420673 28.6710304 -1.44188528 34.1073447"></polygon>
                            </g>
                            <g id="Group-207" transform="translate(108.240971, 55.070376)">
                                <mask id="mask-29" fill="white">
                                    <use xlink:href="#path-28"></use>
                                </mask>
                                <g id="Clip-206"></g>
                                <polygon id="Fill-205" fill="#FDAD29" mask="url(#mask-29)" points="-5.75163049 -5.34590149 11.2441541 -8.35496129 14.4395487 20.2879651 -2.55617106 23.2970249"></polygon>
                            </g>
                        </g>
                        <g id="Group-5" transform="translate(96.112476, 99.512815) rotate(13.000000) translate(-96.112476, -99.512815) translate(17.112476, 16.012815)">
                            <g id="Group-174" transform="translate(34.740695, 122.332726)">
                                <mask id="mask-31" fill="white">
                                    <use xlink:href="#path-30"></use>
                                </mask>
                                <g id="Clip-173"></g>
                                <polygon id="Fill-172" fill="#FFA717" mask="url(#mask-31)" points="-6.79990035 -3.49660454 35.2944704 -9.29294127 43.4165247 47.329725 1.32214141 53.1260617"></polygon>
                            </g>
                            <g id="Group-177" transform="translate(32.471756, 120.944096)">
                                <mask id="mask-33" fill="white">
                                    <use xlink:href="#path-32"></use>
                                </mask>
                                <g id="Clip-176"></g>
                                <polygon id="Fill-175" fill="#FFBA2F" mask="url(#mask-33)" points="-6.85542701 -3.40057038 35.2389563 -9.25340162 43.3476185 47.8269178 1.25323519 53.679749"></polygon>
                            </g>
                            <g id="Group-180" transform="translate(19.185240, 57.303596)">
                                <mask id="mask-35" fill="white">
                                    <use xlink:href="#path-34"></use>
                                </mask>
                                <g id="Clip-179"></g>
                                <polygon id="Fill-178" fill="#EFEFEF" mask="url(#mask-35)" points="-10.9943356 7.75752909 118.824397 -9.24307218 129.100205 58.8868266 -0.718540721 75.8874279"></polygon>
                            </g>
                            <g id="Group-183" transform="translate(4.650207, 99.585398)">
                                <mask id="mask-37" fill="white">
                                    <use xlink:href="#path-36"></use>
                                </mask>
                                <g id="Clip-182"></g>
                                <polygon id="Fill-181" fill="#FDAD29" mask="url(#mask-37)" points="-7.15576334 -2.46432725 44.2105066 -10.0267608 50.1379539 34.1552789 -1.22831601 41.7177124"></polygon>
                            </g>
                            <g id="Group-186" transform="translate(0.091121, 68.219027)">
                                <mask id="mask-39" fill="white">
                                    <use xlink:href="#path-38"></use>
                                </mask>
                                <g id="Clip-185"></g>
                                <polygon id="Fill-184" fill="#FFC248" mask="url(#mask-39)" points="-9.75580883 -1.98437435 30.0543747 -7.28319995 37.4994173 42.8866708 -2.31077995 48.1854445"></polygon>
                            </g>
                            <g id="Group-189" transform="translate(19.468740, 3.407369)">
                                <mask id="mask-41" fill="white">
                                    <use xlink:href="#path-40"></use>
                                </mask>
                                <g id="Clip-188"></g>
                                <polygon id="Fill-187" fill="#FFFFFF" mask="url(#mask-41)" points="-16.2575806 5.7541083 94.2694186 -9.42569879 108.355827 88.5217167 -2.17113347 103.701474"></polygon>
                            </g>
                            <g id="Group-192" transform="translate(74.894306, 0.411756)">
                                <mask id="mask-43" fill="white">
                                    <use xlink:href="#path-42"></use>
                                </mask>
                                <g id="Clip-191"></g>
                                <polygon id="Fill-190" fill="#FDAD29" mask="url(#mask-43)" points="-11.3588484 -1.49679462 75.4906962 -13.3322281 94.0429564 114.667728 7.19343786 126.503174"></polygon>
                            </g>
                            <g id="Group-195" transform="translate(80.521378, 3.700818)">
                                <mask id="mask-45" fill="white">
                                    <use xlink:href="#path-44"></use>
                                </mask>
                                <g id="Clip-194"></g>
                                <polygon id="Fill-193" fill="#EFEFEF" mask="url(#mask-45)" points="-10.769717 -2.45719453 68.4452609 -13.258614 86.0227593 108.086603 6.80771531 118.888009"></polygon>
                            </g>
                            <g id="Group-198" transform="translate(80.521378, 3.700818)">
                                <mask id="mask-47" fill="white">
                                    <use xlink:href="#path-46"></use>
                                </mask>
                                <g id="Clip-197"></g>
                                <polygon id="Fill-196" fill="#FFFFFF" mask="url(#mask-47)" points="-10.769717 -2.45719453 68.4452609 -13.258614 86.0227593 108.086603 6.80771531 118.888009"></polygon>
                            </g>
                            <g id="Group-201" transform="translate(82.089030, 28.294566)">
                                <mask id="mask-49" fill="white">
                                    <use xlink:href="#path-48"></use>
                                </mask>
                                <g id="Clip-200"></g>
                                <polygon id="Fill-199" fill="#EFEFEF" mask="url(#mask-49)" points="-8.30884591 -3.48431972 49.1402814 -10.9889081 62.2143385 75.4766635 4.76519785 82.981165"></polygon>
                            </g>
                            <g id="Group-204" transform="translate(85.853902, 52.220890)">
                                <mask id="mask-51" fill="white">
                                    <use xlink:href="#path-50"></use>
                                </mask>
                                <g id="Clip-203"></g>
                                <polygon id="Fill-202" fill="#FFFFFF" mask="url(#mask-51)" points="-6.68425149 -2.34347825 32.8997663 -7.77979248 38.1420673 28.6710304 -1.44188528 34.1073447"></polygon>
                            </g>
                            <g id="Group-207" transform="translate(108.240971, 55.070376)">
                                <mask id="mask-53" fill="white">
                                    <use xlink:href="#path-52"></use>
                                </mask>
                                <g id="Clip-206"></g>
                                <polygon id="Fill-205" fill="#FDAD29" mask="url(#mask-53)" points="-5.75163049 -5.34590149 11.2441541 -8.35496129 14.4395487 20.2879651 -2.55617106 23.2970249"></polygon>
                            </g>
                        </g>
                    </g>
                </g>
            </g>
        </g>
    </g>
</svg>